<?xml version="1.0" encoding="UTF-8" standalone="no"?>
<!-- Created with Inkscape (http://www.inkscape.org/) -->

<svg
   width="210mm"
   height="297mm"
   viewBox="0 0 210 297"
   version="1.1"
   id="svg1"
   xml:space="preserve"
   inkscape:version="1.3.2 (091e20ef0f, 2023-11-25)"
   sodipodi:docname="plate.svg"
   xmlns:inkscape="http://www.inkscape.org/namespaces/inkscape"
   xmlns:sodipodi="http://sodipodi.sourceforge.net/DTD/sodipodi-0.dtd"
   xmlns="http://www.w3.org/2000/svg"
   xmlns:svg="http://www.w3.org/2000/svg"><sodipodi:namedview
     id="namedview1"
     pagecolor="#ffffff"
     bordercolor="#666666"
     borderopacity="1.0"
     inkscape:showpageshadow="2"
     inkscape:pageopacity="0.0"
     inkscape:pagecheckerboard="0"
     inkscape:deskcolor="#d1d1d1"
     inkscape:document-units="mm"
     inkscape:zoom="3.39321"
     inkscape:cx="334.78624"
     inkscape:cy="621.83007"
     inkscape:window-width="3840"
     inkscape:window-height="2112"
     inkscape:window-x="0"
     inkscape:window-y="0"
     inkscape:window-maximized="1"
     inkscape:current-layer="layer1" /><defs
     id="defs1" /><g
     inkscape:label="Layer 1"
     inkscape:groupmode="layer"
     id="layer1"><path
       id="rect1"
       style="fill:#828282;fill-opacity:1;stroke-width:0.887326;stroke-linecap:round;stroke-linejoin:round;paint-order:fill markers stroke"
       inkscape:label="rect1"
       d="m 94.606112,96.013648 -2.85409,2.742598 H 58.582471 c -1.98477,0.02096 -2.900001,1.577404 -2.930571,2.577104 v 93.53383 c 0,0 0.296244,1.06844 0.89607,1.66914 0.599824,0.60069 1.719791,0.81184 1.719791,0.81184 h 24.715288 c 0,0 1.094823,0.9306 2.402437,2.14926 0.971586,0.8515 1.303444,1.74069 2.762105,1.70619 9.920341,0.0226 59.976639,0.006 63.232319,0 3.25565,-0.007 2.8205,-3.85545 2.8205,-3.85545 v -95.87748 c 0,0 -0.0455,-1.20671 -0.68213,-1.843299 -0.63659,-0.636591 -2.00505,-0.871135 -2.00505,-0.871135 h -33.43362 l -2.69699,-2.742598 z M 141.41876,197.3895 h 2.88664 l 2.46549,2.59984 h -5.35213 z m 4.35632,0 h 5.2219 v 2.59984 h -2.81584 z"
       sodipodi:nodetypes="cccccscccccccscccccccccccccc" /></g></svg>
