<?xml version="1.0" encoding="UTF-8" standalone="no"?>
<!-- Created with Inkscape (http://www.inkscape.org/) -->

<svg
   width="210mm"
   height="297mm"
   viewBox="0 0 210 297"
   version="1.1"
   id="svg5"
   inkscape:version="1.1.1 (3bf5ae0d25, 2021-09-20)"
   sodipodi:docname="adrian_music_scratch.svg"
   xmlns:inkscape="http://www.inkscape.org/namespaces/inkscape"
   xmlns:sodipodi="http://sodipodi.sourceforge.net/DTD/sodipodi-0.dtd"
   xmlns:xlink="http://www.w3.org/1999/xlink"
   xmlns="http://www.w3.org/2000/svg"
   xmlns:svg="http://www.w3.org/2000/svg">
  <sodipodi:namedview
     id="namedview7"
     pagecolor="#ffffff"
     bordercolor="#666666"
     borderopacity="1.0"
     inkscape:pageshadow="2"
     inkscape:pageopacity="0.0"
     inkscape:pagecheckerboard="0"
     inkscape:document-units="mm"
     showgrid="false"
     inkscape:zoom="2.0489161"
     inkscape:cx="-510.02578"
     inkscape:cy="1606.7032"
     inkscape:window-width="3840"
     inkscape:window-height="2112"
     inkscape:window-x="0"
     inkscape:window-y="0"
     inkscape:window-maximized="1"
     inkscape:current-layer="layer1" />
  <defs
     id="defs2" />
  <g
     inkscape:label="Layer 1"
     inkscape:groupmode="layer"
     id="layer1">
    <path
       style="fill:#000000;stroke-width:0.0846667"
       d="m -230.92119,498.24074 c -1.48043,-0.37854 -1.67998,-0.51537 -2.44017,-1.67318 -0.23697,-0.36092 -0.53072,-0.71132 -0.65278,-0.77867 -0.20702,-0.11423 -0.26566,-0.10083 -0.87353,0.19952 -0.51876,0.25632 -0.713,0.31201 -0.95274,0.2731 -0.49353,-0.0801 -0.8177,-0.49259 -1.04214,-1.32611 -0.32912,-1.22226 -0.67122,-1.42018 -2.49767,-1.44501 -1.58252,-0.0215 -3.63023,-0.33871 -4.30956,-0.66756 -0.91094,-0.44099 -0.83583,-1.45796 0.1413,-1.91289 0.54393,-0.25323 1.41367,-0.27682 2.5596,-0.0694 0.4191,0.0759 1.11123,0.14242 1.53807,0.1479 0.66561,0.009 0.81021,-0.0154 1.016,-0.16798 0.38987,-0.28917 0.36291,-0.72586 -0.22423,-3.63205 -0.68494,-3.39031 -0.8773,-4.71562 -1.65282,-11.38766 -0.11637,-1.00119 -0.33232,-2.67759 -0.47989,-3.72534 -0.31094,-2.20774 -0.29787,-2.41684 0.18093,-2.89565 0.28456,-0.28456 0.36924,-0.32163 0.73381,-0.32125 0.5574,8.5e-4 0.91958,0.23485 1.67997,1.08661 0.72595,0.81318 0.86227,1.07142 1.02688,1.94529 0.39499,2.09696 0.9499,3.72897 2.15005,6.32334 0.40929,0.88476 0.85589,1.85649 0.99246,2.15939 0.49609,1.1003 0.73916,1.12585 1.21344,0.12759 0.46139,-0.97115 1.09111,-1.64695 1.89062,-2.02897 0.5465,-0.26112 1.64624,-0.55435 2.07909,-0.55435 0.31992,0 0.82763,-0.26026 0.92512,-0.47424 0.15984,-0.35081 0.11678,-0.63459 -0.41188,-2.71487 -0.27943,-1.09952 -0.62516,-2.61296 -0.76829,-3.36318 -0.14313,-0.75022 -0.33728,-1.66884 -0.43145,-2.04137 -0.3173,-1.25523 -0.19981,-1.97921 0.37839,-2.33177 0.32067,-0.19552 0.90099,-0.21732 1.22777,-0.0461 0.74399,0.38977 1.22439,1.33462 1.75537,3.45248 0.16704,0.66627 0.41247,1.59241 0.5454,2.05807 0.13293,0.46567 0.45974,1.68487 0.72624,2.70934 0.56417,2.16876 1.6071,5.38603 2.23685,6.90033 0.50858,1.22291 2.65841,5.42806 3.16958,6.1998 0.19058,0.28773 0.3816,0.50592 0.42447,0.48484 0.29951,-0.1472 -0.35508,-3.31557 -1.46483,-7.09013 -0.98723,-3.35786 -1.41934,-4.94834 -2.02908,-7.46851 -1.49792,-6.19124 -1.73035,-7.33879 -1.7406,-8.59367 -0.005,-0.65627 0.021,-0.80563 0.18993,-1.07649 0.45591,-0.73101 1.89129,-1.01338 5.30529,-1.04364 2.3029,-0.0204 2.25026,-0.0113 5.588,-0.96254 1.43434,-0.40875 8.19062,-2.64418 11.13367,-3.68376 1.15137,-0.4067 1.89583,-0.38003 2.45183,0.0878 0.37358,0.31434 0.47786,0.72092 0.30261,1.17981 -0.15837,0.41467 -0.47076,0.71316 -1.05201,1.00515 -0.72403,0.36374 -2.41042,0.96222 -4.62343,1.64081 -1.21073,0.37126 -3.23003,0.99912 -4.48733,1.39525 -2.06861,0.65174 -5.05724,1.47056 -6.604,1.80938 -0.3527,0.0772 -1.31257,0.15379 -2.37067,0.18904 -1.92193,0.064 -2.07058,0.0996 -2.25299,0.54001 -0.11808,0.28507 0.045,1.4288 0.44348,3.11016 0.13795,0.58209 0.34705,1.51554 0.46466,2.07434 0.56384,2.67889 1.66851,6.63008 2.91613,10.43045 0.55597,1.69351 1.50864,5.36167 1.72412,6.63851 0.10867,0.64398 0.11795,0.90268 0.0446,1.24455 -0.12342,0.57547 -0.48183,1.0508 -0.97082,1.28752 -0.35084,0.16984 -0.48105,0.18662 -1.10592,0.14252 -0.44577,-0.0315 -0.72811,-0.0179 -0.76179,0.0366 -0.0294,0.0476 -0.1434,0.44955 -0.25325,0.89315 -0.29843,1.20521 -0.61801,1.662 -1.47592,2.10962 -0.42382,0.22113 -1.44889,0.20214 -2.37067,-0.0439 -0.45404,-0.1212 -1.15716,-0.21941 -1.905,-0.26609 -0.65193,-0.0407 -1.53485,-0.15643 -1.96203,-0.25717 -0.42719,-0.10076 -0.83676,-0.16014 -0.91017,-0.13197 -0.22601,0.0867 -0.15232,0.50903 0.22637,1.29724 0.45891,0.95518 0.48322,1.44679 0.0987,1.99684 -0.43837,0.62714 -1.96454,1.2569 -3.01596,1.24449 -0.24655,-0.003 -0.87081,-0.11332 -1.38724,-0.24537 z m -1.92963,-7.58337 c 0.17508,-0.17508 0.20368,-0.26366 0.1572,-0.48683 -0.1072,-0.51473 -1.97909,-3.75374 -2.40539,-4.16216 -0.22621,-0.21672 -0.26087,-0.22735 -0.31148,-0.0955 -0.17855,0.46529 0.38746,3.44519 0.81273,4.27877 0.23072,0.45226 0.60679,0.67899 1.12689,0.6794 0.32164,0 0.45049,-0.0442 0.62005,-0.21372 z m 7.67242,-1.47808 c 1.32362,-0.42667 1.59642,-0.69427 1.41221,-1.38531 -0.0515,-0.19337 -0.4513,-1.15602 -0.88836,-2.13924 -0.43705,-0.98321 -0.97139,-2.24051 -1.18741,-2.794 -0.83657,-2.14345 -1.07531,-2.38321 -2.3868,-2.39689 -0.83655,-0.009 -1.21641,0.182 -1.41901,0.71247 -0.1969,0.51559 -0.13644,1.09453 0.28745,2.75242 0.39015,1.52594 0.69134,2.32535 1.33978,3.556 0.78422,1.48836 1.20842,1.94027 1.82614,1.9454 0.12751,0.001 0.58471,-0.11182 1.016,-0.25085 z m 142.981848,8.91919 c -1.67409,-0.24838 -3.98843,-0.6439 -5.37633,-0.91882 -0.79163,-0.1568 -1.761862,-0.34773 -2.156072,-0.42429 -0.39421,-0.0765 -1.17526,-0.30515 -1.73567,-0.50802 -0.56041,-0.20286 -1.53328,-0.52759 -2.16193,-0.72163 -1.7206,-0.53106 -4.17104,-1.76069 -4.99848,-2.50824 -0.65994,-0.59621 -0.72222,-1.36243 -0.15927,-1.95959 0.37268,-0.39535 0.72094,-0.59712 2.06742,-1.19783 0.65193,-0.29085 1.92828,-0.8838 2.83633,-1.31767 1.85422,-0.88596 2.99468,-1.29282 4.36034,-1.55557 2.327072,-0.44773 4.313882,-0.58467 6.434662,-0.44348 3.10786,0.20689 5.4611,0.58911 7.93952,1.28955 3.52577,0.99644 5.20096,1.23324 7.78115,1.09993 1.42701,-0.0737 1.62149,-0.24666 2.00938,-1.78675 0.28163,-1.11817 0.99383,-4.54596 1.31938,-6.35 0.12184,-0.67522 0.31445,-1.59558 0.42802,-2.04524 0.12673,-0.50177 0.18629,-0.91857 0.15421,-1.07901 -0.0649,-0.32464 -0.48523,-0.73042 -1.63999,-1.58336 -1.60912,-1.18854 -3.21476,-2.88876 -4.50946,-4.77506 -1.5544,-2.26469 -2.53069,-4.37657 -4.93165,-10.668 -0.36431,-0.95461 -1.04156,-2.65006 -1.505,-3.76766 -0.46345,-1.1176 -1.01147,-2.4511 -1.21783,-2.96334 -0.46772,-1.161 -1.10059,-3.23337 -1.51257,-4.953 -0.88509,-3.6944 -1.8907,-7.16342 -3.50969,-12.10733 -2.10458,-6.42673 -2.41721,-7.47606 -2.66123,-8.93233 -0.20172,-1.2038 -0.32094,-3.17861 -0.28629,-4.74238 l 0.0319,-1.43829 0.31426,-0.69105 c 0.17284,-0.38008 0.31426,-0.82464 0.31426,-0.98793 0,-0.16328 -0.1289,-0.70956 -0.28643,-1.21395 -0.34819,-1.11481 -0.60011,-2.51398 -0.76725,-4.2614 -0.33587,-3.51136 -0.39923,-4.22638 -0.51387,-5.79967 -0.22483,-3.08545 -0.13748,-8.58925 0.17525,-11.04197 0.16677,-1.308 0.89695,-5.37759 1.17567,-6.55245 0.40863,-1.72252 0.97779,-3.05094 1.94607,-4.54216 2.65828,-4.09396 7.537,-8.26724 14.56645,-12.46023 2.58232,-1.54033 2.57984,-1.53822 2.64716,-2.24805 0.0213,-0.22466 -0.0602,-1.11332 -0.18116,-1.97481 -0.12094,-0.86148 -0.27675,-2.38548 -0.34622,-3.38666 -0.15864,-2.28626 -0.18304,-2.44886 -0.4783,-3.18911 -0.31954,-0.80107 -0.31722,-1.30481 0.0103,-2.23363 0.40331,-1.14377 0.31379,-1.82719 -0.29493,-2.25173 -0.78956,-0.55065 -1.05807,-0.91389 -1.05807,-1.43136 0,-0.61614 0.38204,-1.07082 1.16588,-1.38758 0.6073,-0.24541 0.80689,-0.73849 0.91039,-2.24892 0.069,-1.007 0.22552,-2.25244 0.67993,-5.40992 0.20706,-1.43875 0.37647,-2.80272 0.37647,-3.03103 0,-0.85879 -0.35427,-1.10683 -2.032,-1.42272 -1.15984,-0.21838 -1.69326,-0.43147 -2.02451,-0.80874 -0.33921,-0.38633 -0.40036,-0.72747 -0.19972,-1.11409 0.3462,-0.66711 1.14187,-0.81774 3.01571,-0.5709 1.77997,0.23447 1.99357,0.11276 2.50341,-1.42638 0.41886,-1.26448 0.84149,-3.03146 0.98064,-4.09989 0.0714,-0.54835 0.16945,-1.11831 0.21787,-1.26658 0.11908,-0.36462 0.67455,-0.85048 1.05364,-0.9216 1.10158,-0.20666 2.50529,0.61357 2.80307,1.6379 0.14727,0.50662 0.1199,0.78661 -0.18445,1.88665 -0.51414,1.85832 -0.67932,4.22123 -0.41837,5.98476 0.14684,0.99235 0.14683,1.06891 0,2.0837 -0.13615,0.93974 -0.14176,1.20754 -0.0519,2.48017 0.14372,2.03596 0.92492,6.47821 1.28241,7.29233 0.0875,0.19928 0.33316,0.58387 0.54588,0.85464 0.48916,0.62262 0.56043,0.88004 0.49579,1.7908 -0.044,0.61982 -0.0223,0.83517 0.13718,1.3619 0.19332,0.63846 1.04522,2.90659 1.56329,4.16214 0.74671,1.80971 0.89677,2.38179 1.1599,4.42219 0.15433,1.19674 0.30681,2.06112 0.39558,2.24255 0.21436,0.43806 0.58563,0.64144 1.3896,0.76119 1.76917,0.26354 3.64795,0.79837 4.94027,1.40633 1.69166,0.79584 4.68318,3.18603 6.00972,4.8017 1.35382,1.64888 3.88811,5.64537 4.95017,7.80623 0.82595,1.68046 1.2483,2.85199 2.06034,5.715 1.08889,3.83906 1.52051,5.73909 1.92332,8.46666 0.79984,5.41609 1.10648,10.06271 1.04201,15.79034 -0.0389,3.4575 -0.13009,4.73635 -0.39841,5.588 -0.11736,0.37253 -0.252,1.05833 -0.29919,1.524 -0.26768,2.6412 -0.64157,5.12951 -1.14499,7.62 -0.85985,4.25379 -1.49997,6.4635 -2.82056,9.73666 -0.76601,1.8986 -1.69215,4.41575 -1.9314,5.24934 -0.20519,0.71492 -1.62686,4.51717 -2.20017,5.88433 -1.20967,2.8847 -3.21218,7.11279 -3.92301,8.28303 -0.27349,0.45025 -0.62136,1.06456 -0.77304,1.36513 -0.51506,1.02063 -1.70878,3.06701 -2.41552,4.1409 -0.81197,1.2338 -1.52955,2.54176 -2.58098,4.70443 -0.85317,1.75487 -1.42599,2.67235 -1.94671,3.11807 -0.38634,0.3307 -0.59387,0.41669 -1.38117,0.57239 -0.85391,0.16885 -1.27298,0.8151 -1.6737,2.58105 -0.55706,2.45495 -0.61628,2.65566 -1.0682,3.62076 -0.5642,1.20484 -0.5635,1.19266 -0.24238,4.25324 0.41555,3.96044 0.48147,4.07798 2.00194,3.56928 1.50719,-0.50427 3.43047,-0.78573 6.46852,-0.94664 0.5588,-0.0296 1.59491,-0.10713 2.30247,-0.1723 0.70756,-0.0652 2.33931,-0.15958 3.62613,-0.20978 1.28681,-0.0502 2.46051,-0.10693 2.6082,-0.12606 0.14769,-0.0191 1.60204,-0.0603 3.23187,-0.0916 3.01196,-0.0578 4.00668,-0.0122 5.92667,0.27118 3.00656,0.44381 5.79734,1.70147 8.04412,3.62504 0.80217,0.68677 1.11749,1.6469 0.76483,2.32887 -0.0786,0.15201 -0.57211,0.72309 -1.09667,1.26907 -1.01316,1.05454 -1.52936,1.70327 -2.57819,3.24015 -0.67821,0.99379 -1.1903,1.47685 -1.77503,1.67442 -0.18557,0.0627 -1.15481,0.13394 -2.40248,0.17658 -1.30112,0.0445 -2.38769,0.12591 -2.87547,0.21555 -0.62191,0.11429 -1.04737,0.13325 -2.05726,0.0917 -0.70025,-0.0288 -1.42559,-0.089 -1.61185,-0.13361 -0.18627,-0.0446 -1.00542,-0.17898 -1.82034,-0.29851 -0.81491,-0.11954 -2.14841,-0.39235 -2.96333,-0.60625 -2.83609,-0.74442 -2.96034,-0.76877 -4.51941,-0.88609 -1.30096,-0.0979 -1.44605,-0.12295 -4.37059,-0.75503 -4.51009,-0.97476 -5.40585,-1.04734 -6.85483,-0.55543 -0.89474,0.30375 -1.58143,0.4141 -3.19627,0.51365 -1.00594,0.062 -1.6011,0.18194 -4.11306,0.82885 -2.22887,0.57401 -2.42572,0.61016 -4.25084,0.78072 -1.80924,0.16908 -3.14839,0.39428 -4.23334,0.71192 -1.39972,0.40979 -1.62903,0.43572 -5.67266,0.64131 -2.90515,0.14769 -3.62615,0.14562 -4.699,-0.0136 z m 51.60434,-2.49149 c 2.31299,-0.19679 2.66973,-0.28427 3.23617,-0.79354 0.80392,-0.72279 1.71683,-2.08312 1.71683,-2.55825 0,-0.36671 -0.12827,-0.42431 -1.10141,-0.49458 -0.44197,-0.0319 -1.37509,-0.18718 -2.07359,-0.34503 -2.246,-0.50758 -5.65021,-0.96945 -7.11149,-0.96486 -0.46594,10e-4 -1.24723,0.0739 -1.73618,0.16095 -3.32683,0.59233 -3.40593,0.60248 -4.69492,0.60263 -0.70074,8e-5 -1.78843,-0.0565 -2.41708,-0.12575 -1.99268,-0.21949 -4.00766,-0.22087 -6.49971,-0.004 -1.6586,0.14405 -2.27746,0.22816 -2.43416,0.33084 -0.45108,0.29555 -0.13081,0.57103 0.94611,0.81379 0.88902,0.20041 4.45768,1.02384 6.20976,1.43285 0.58208,0.13588 1.55363,0.308 2.159,0.38247 1.66624,0.205 2.48717,0.35911 4.064,0.76291 0.79886,0.20457 1.94795,0.42959 2.58233,0.50569 0.62865,0.0754 1.58115,0.21007 2.11667,0.29923 1.68281,0.28021 1.68656,0.2802 5.03767,-0.005 z m -45.53189,-0.66009 c 0.11827,-0.0662 0.1132,-0.0832 -0.0393,-0.13156 -0.21398,-0.0679 -1.20353,0.0825 -1.32199,0.201 -0.10706,0.10706 1.1615,0.0423 1.36125,-0.0694 z m 15.56123,-2.33141 c 1.26883,-0.13423 1.57729,-0.24119 2.10886,-0.73118 0.65478,-0.60355 0.67779,-0.89071 0.26596,-3.3194 -0.40075,-2.36337 -0.51361,-3.22658 -0.76667,-5.86384 -0.12064,-1.2573 -0.25899,-2.43489 -0.30745,-2.61688 -0.19867,-0.74606 -0.97123,-1.08215 -1.32986,-0.57851 -0.22678,0.31848 -0.28433,0.569 -0.73408,3.19539 -0.2153,1.2573 -0.48658,2.7432 -0.60284,3.302 -0.35069,1.68552 -0.58917,3.05603 -0.7971,4.58057 -0.30594,2.24317 -0.25819,2.28802 2.16318,2.03185 z m -18.41634,-0.33304 c 0.53551,-0.0727 1.98331,-0.2498 3.21733,-0.3936 2.34842,-0.27367 3.048,-0.39208 3.048,-0.51594 0,-0.0408 -0.0857,-0.13026 -0.1905,-0.19869 -0.23447,-0.15313 -3.25562,-1.17979 -4.13226,-1.40425 -0.87147,-0.22312 -3.45469,-0.64088 -4.69424,-0.75914 -0.5588,-0.0533 -1.1303,-0.11249 -1.27,-0.13149 -0.1397,-0.019 -1.016,-0.0587 -1.94733,-0.0882 -1.47928,-0.0468 -1.83783,-0.031 -2.83634,0.1249 -1.895992,0.29612 -3.241092,0.69226 -4.273582,1.25859 -0.42684,0.23412 -0.65983,0.53892 -0.577,0.7548 0.07,0.18246 0.61481,0.42688 1.17219,0.52589 0.27687,0.0492 1.32254,0.16728 2.32373,0.26245 2.027942,0.19275 3.163082,0.3525 4.233332,0.59576 0.63254,0.14377 0.97594,0.15979 2.83633,0.13229 1.26254,-0.0187 2.50957,-0.0846 3.09034,-0.16342 z m 12.26202,-0.041 c 0.0437,-0.30677 -0.20176,-0.60808 -0.49531,-0.60808 -0.32577,0 -0.33697,0.22476 -0.0294,0.59027 0.25177,0.29921 0.48354,0.30707 0.52472,0.0178 z m 27.86998,-3.56759 c 0.72178,-0.14413 1.68474,-0.28595 2.1399,-0.31518 0.9762,-0.0627 3.46122,0.0917 5.01443,0.31148 3.03691,0.42976 5.06091,0.52093 5.34125,0.24058 0.24856,-0.24856 0.072,-0.46842 -0.66864,-0.83242 -1.73275,-0.85164 -3.04896,-1.05405 -6.87394,-1.05704 -3.00349,-0.002 -7.88163,0.153 -9.48267,0.30198 -3.34168,0.31095 -4.30926,0.45176 -4.92834,0.71724 -0.28613,0.12269 -0.30232,0.14492 -0.14907,0.20466 0.0946,0.0369 0.51367,0.10879 0.93133,0.15985 5.65303,0.69107 5.51446,0.6788 6.64375,0.58846 0.39581,-0.0317 1.31021,-0.17548 2.032,-0.31961 z m -20.46261,-12.45983 c 0.27579,-0.14119 0.81643,-0.67635 0.96024,-0.95052 0.0695,-0.13247 0.29174,-0.72372 0.49389,-1.31389 1.39491,-4.07243 2.08379,-5.08291 3.47214,-5.09313 0.5509,-0.004 0.97602,-0.13851 1.2452,-0.39383 0.27725,-0.26299 0.81115,-1.14869 1.75833,-2.91691 0.33977,-0.63431 0.97991,-1.66301 1.42252,-2.286 0.982,-1.38222 1.81394,-2.75574 2.6861,-4.43471 0.36284,-0.6985 1.0174,-1.92446 1.45458,-2.72436 1.40795,-2.57609 1.50398,-2.79776 3.91831,-9.04431 0.59395,-1.5367 1.16671,-3.0607 1.27281,-3.38666 0.25224,-0.7749 1.83118,-4.99418 2.45551,-6.56167 0.92142,-2.31338 1.11072,-2.9895 2.1097,-7.53533 0.72173,-3.28418 0.74458,-3.41347 0.85311,-4.826 0.13889,-1.80787 0.32397,-3.07792 0.55201,-3.78807 0.11603,-0.36131 0.32937,-1.32368 0.4741,-2.1386 0.23728,-1.33609 0.26903,-1.72291 0.32316,-3.937 0.0614,-2.51202 -0.004,-6.05764 -0.16223,-8.84767 -0.28795,-5.06463 -0.87747,-8.87702 -2.16019,-13.97 -0.65311,-2.59312 -1.54164,-5.20625 -2.41873,-7.11339 -0.81177,-1.76512 -2.89412,-5.16955 -4.00887,-6.55407 -1.89963,-2.35936 -3.48403,-3.61304 -5.84106,-4.62188 -1.02405,-0.4383 -1.9687,-0.70285 -2.88636,-0.80831 -0.2794,-0.0321 -0.5842,-0.0747 -0.67733,-0.0947 -0.45665,-0.0979 -4.47545,-0.12596 -5.29167,-0.0369 -1.09922,0.11988 -2.75756,0.45572 -3.66381,0.74201 -2.43654,0.76969 -5.73693,2.50692 -8.44352,4.44439 -0.72178,0.51668 -1.93545,1.35927 -2.69705,1.87243 -2.83434,1.90977 -5.89257,4.73395 -7.403,6.83646 -1.41975,1.97629 -2.28115,3.96158 -2.88658,6.6527 -0.83992,3.73343 -1.01294,5.50434 -1.12022,11.46597 -0.0646,3.59206 0.0644,7.16159 0.34814,9.63093 0.2386,2.0765 0.32275,2.42848 0.63538,2.65788 0.19665,0.1443 0.24469,0.14645 0.67733,0.0303 0.95947,-0.25768 1.58075,-0.0785 1.8346,0.52901 0.21849,0.52292 0.0502,1.01703 -0.74424,2.18494 -1.32209,1.94368 -1.42094,2.25609 -1.48531,4.69431 -0.0761,2.88318 0.17059,4.28419 1.37912,7.83167 0.34902,1.02447 0.7523,2.24367 0.89619,2.70933 0.14388,0.46567 0.5203,1.64677 0.83647,2.62467 0.88474,2.7365 1.91085,6.38981 2.95489,10.52047 0.58708,2.3227 1.25112,4.34815 1.99143,6.0742 0.61856,1.44221 0.94328,2.25198 2.98775,7.45066 1.77877,4.52309 2.57357,6.19763 3.91652,8.25157 1.39577,2.13473 2.82476,3.5557 5.15991,5.13095 1.552,1.04694 2.28431,1.31777 2.82073,1.04314 z m -1.80473,-58.72404 c -2.18295,-0.38153 -4.00875,-1.39827 -5.8887,-3.27929 -1.38933,-1.39011 -2.32114,-2.63641 -3.07392,-4.11133 -1.67714,-3.28602 -2.40835,-5.92938 -2.41233,-8.72066 -0.002,-1.70803 0.28961,-2.98023 0.83178,-3.62321 0.66119,-0.78417 1.75833,-0.79295 2.18153,-0.0175 0.14584,0.26725 0.15485,0.39188 0.0918,1.27 -0.0384,0.53552 -0.0674,1.65947 -0.0644,2.49767 0.005,1.29997 0.0373,1.67335 0.22203,2.54 0.26233,1.23048 0.81913,2.75469 1.54646,4.23333 0.5922,1.20393 2.06078,3.26411 3.03644,4.25964 1.06465,1.08635 2.49031,2.02069 3.73644,2.44878 0.6094,0.20936 0.79884,0.2341 1.78253,0.23287 1.05056,-10e-4 1.14499,-0.0162 2.07433,-0.32776 1.23353,-0.41347 1.68336,-0.64139 2.01794,-1.02245 0.41895,-0.47715 0.58863,-0.88506 1.07093,-2.57454 0.57396,-2.01055 0.66187,-2.23742 1.52339,-3.93149 0.80275,-1.57848 0.92591,-1.94292 1.06417,-3.14905 0.0534,-0.46567 0.18423,-1.17052 0.29077,-1.56633 0.10655,-0.39582 0.34702,-1.29117 0.53439,-1.98967 0.42394,-1.58043 0.80351,-2.43378 1.26892,-2.85272 0.58198,-0.52388 1.32645,-0.51876 1.83555,0.0126 0.39772,0.41512 0.39175,0.92134 -0.0265,2.2518 -0.73457,2.33642 -1.02494,3.4169 -1.15928,4.31362 -0.18962,1.26571 -0.4613,2.0767 -0.9801,2.92568 -0.82011,1.34203 -0.94442,1.56197 -1.19381,2.11199 -0.13724,0.30268 -0.53135,1.37881 -0.87581,2.39138 -0.34446,1.01257 -0.74594,2.07808 -0.89218,2.36779 -0.3499,0.69312 -1.14084,1.46973 -1.896,1.86164 -0.73931,0.38367 -3.17023,1.21184 -4.05279,1.3807 -0.60823,0.11637 -2.09056,0.15435 -2.59355,0.0664 z m -6.90033,-22.68236 c -2.11116,-0.28264 -3.04607,-0.64966 -3.94517,-1.54875 -0.92781,-0.92781 -1.34439,-1.98582 -1.52004,-3.86054 -0.23867,-2.54726 0.26078,-5.72778 1.18994,-7.57763 0.62153,-1.23739 1.31427,-1.98545 2.26548,-2.4464 1.05961,-0.51348 1.79501,-0.68334 2.96586,-0.68502 2.98267,-0.004 4.29672,1.161 4.80012,4.2567 0.0666,0.40934 0.16684,1.39035 0.22284,2.18 0.12305,1.73509 0.0452,2.53683 -0.38968,4.01053 -0.26469,0.89707 -0.37043,1.50972 -0.49322,2.85768 -0.0198,0.21698 -0.12363,0.57566 -0.23081,0.79707 -0.27647,0.57111 -1.30225,1.56456 -1.94936,1.88793 -0.48539,0.24255 -0.5948,0.26387 -1.29965,0.25332 -0.42331,-0.006 -1.15064,-0.0625 -1.61631,-0.12489 z m 12.59057,-3.97703 c -0.527,-0.26261 -0.97893,-0.75794 -1.58398,-1.73607 -1.49512,-2.41703 -1.9587,-4.04831 -1.61342,-5.67735 0.22311,-1.05261 0.63853,-1.63673 1.42949,-2.01003 0.66994,-0.31618 1.20935,-0.38422 2.08996,-0.26365 1.34746,0.1845 1.99106,0.56021 2.37711,1.38769 0.61895,1.32666 1.1081,3.6305 1.12548,5.30085 0.0122,1.17557 -0.0711,1.37581 -0.92654,2.22707 -0.99897,0.99407 -1.94569,1.2461 -2.8981,0.77149 z m -3.19808,-25.60246 c 0.26533,-0.10088 0.28204,-0.34044 0.0391,-0.56048 -0.13815,-0.12512 -0.30425,-0.16084 -0.74084,-0.15927 -0.53255,0.002 -1.19775,0.0536 -1.19775,0.0931 0,0.072 0.69379,0.42111 1.08682,0.54681 0.57912,0.18521 0.54459,0.18181 0.81267,0.0799 z m -1.17597,-4.01991 c 0.24263,-0.24264 0.25316,-0.37076 0.0787,-0.95814 -0.14475,-0.48745 -0.44987,-0.8955 -0.80812,-1.08075 -0.31322,-0.16198 -1.28287,-0.1624 -1.59557,-8.5e-4 -0.34145,0.17657 -0.54368,0.65137 -0.49468,1.16141 0.0607,0.63109 0.30406,0.82538 1.2918,1.03108 0.0931,0.0194 0.42824,0.0397 0.74468,0.0451 0.50512,0.009 0.60071,-0.0155 0.78317,-0.198 z m -1.68884,-5.67964 c 0.0977,-0.38932 -0.14769,-1.05521 -0.38888,-1.05521 -0.20478,0 -0.32658,0.80772 -0.16682,1.10622 0.13258,0.24774 0.48893,0.21503 0.5557,-0.051 z M -189.89987,483.5135 c -1.07802,-0.34808 -1.34483,-1.38207 -2.24144,-8.68643 -0.69666,-5.67548 -0.78994,-9.59429 -0.28985,-12.17683 0.19304,-0.99688 0.42185,-1.52107 0.99198,-2.27257 0.50362,-0.66385 0.51828,-0.70493 0.91394,-2.56093 0.42922,-2.01349 0.79456,-3.15265 1.53219,-4.77749 0.35226,-0.77596 0.7511,-1.68787 0.88632,-2.02646 0.78046,-1.95431 2.04851,-3.61433 3.2626,-4.2711 1.17779,-0.63713 2.76147,-0.63015 3.66916,0.0162 0.29783,0.21207 0.64375,0.71562 0.73134,1.06459 0.0317,0.12638 0.2999,0.48656 0.59595,0.80039 0.29606,0.31384 0.61223,0.73777 0.70261,0.94209 0.23214,0.52479 0.58043,2.68507 0.7695,4.77279 0.0886,0.9779 0.223,2.4638 0.29875,3.302 0.0757,0.8382 0.24644,2.5527 0.37931,3.81 0.24454,2.31386 0.29695,3.02653 0.37981,5.16466 0.1097,2.83053 0.39793,6.47473 0.63498,8.02852 0.0911,0.59722 0.28761,1.58782 0.43666,2.20133 0.24694,1.01647 0.27144,1.2395 0.27608,2.51249 0.005,1.28119 -0.0103,1.42573 -0.18041,1.74368 -0.51944,0.97071 -1.693,1.33321 -2.39737,0.74053 -0.3342,-0.28121 -0.48325,-0.57711 -0.715,-1.41942 -0.33954,-1.23414 -0.52469,-1.36503 -1.83163,-1.29494 -0.48501,0.026 -1.20568,0.0852 -1.60149,0.13148 -0.39582,0.0463 -1.13877,0.10837 -1.651,0.13792 -2.55877,0.14756 -2.93254,0.19031 -3.16249,0.36164 -0.22122,0.16484 -0.22474,0.18375 -0.26651,1.43482 -0.0403,1.20691 -0.0535,1.28469 -0.27526,1.61937 -0.36935,0.55748 -1.25464,0.89349 -1.84873,0.70168 z m 5.84932,-6.48731 c 1.47103,-0.13533 2.5593,-0.35171 3.20467,-0.63719 0.86776,-0.38385 0.90401,-0.52972 0.69236,-2.78618 -0.0897,-0.95649 -0.18655,-2.13913 -0.2152,-2.62808 -0.0924,-1.57636 -0.29294,-4.42009 -0.37626,-5.334 -0.0446,-0.48895 -0.10035,-1.1557 -0.12394,-1.48167 -0.0236,-0.32597 -0.0809,-1.10702 -0.12739,-1.73567 -0.1291,-1.74615 -0.24797,-3.60131 -0.3445,-5.37633 -0.0481,-0.88477 -0.12599,-2.31352 -0.17305,-3.175 -0.0471,-0.86148 -0.10703,-2.17593 -0.13327,-2.921 -0.0262,-0.74507 -0.0844,-1.47544 -0.12922,-1.62306 -0.1628,-0.53596 -0.90122,-0.54601 -1.53692,-0.0209 -0.73272,0.60521 -1.85339,2.5861 -2.79975,4.94884 -1.11697,2.78869 -1.52781,4.26239 -2.3832,8.54848 -0.53178,2.66465 -0.56365,2.89396 -0.68827,4.953 -0.17138,2.83146 -0.0692,4.63896 0.35544,6.28878 0.31404,1.22008 1.10534,2.48797 1.76844,2.83356 0.58527,0.30502 1.04396,0.32734 3.01006,0.14645 z m 22.098,-1.66381 c -0.61475,-0.17426 -1.17009,-0.76302 -1.43494,-1.52129 -0.0871,-0.24934 -0.21993,-0.87245 -0.2952,-1.38469 -0.23629,-1.60783 -0.40397,-2.07284 -1.45392,-4.03198 -2.07386,-3.86968 -3.13971,-6.20307 -4.32679,-9.47235 -0.85646,-2.35875 -1.08737,-2.75112 -1.31196,-2.22938 -0.19506,0.45313 -0.0726,4.59779 0.23975,8.11371 0.0703,0.79164 0.25863,2.11753 0.41846,2.94642 0.39781,2.06306 0.37119,2.54302 -0.17299,3.11959 -0.33455,0.35445 -0.70062,0.49566 -1.28496,0.49566 -0.85851,0 -1.49251,-0.46711 -1.72251,-1.26906 -0.12792,-0.44604 -0.58027,-3.44568 -0.63215,-4.19194 -0.0259,-0.37253 -0.0848,-1.18978 -0.13094,-1.81609 -0.0461,-0.62631 -0.0845,-1.55976 -0.0852,-2.07433 -7.6e-4,-0.51457 -0.0383,-1.37373 -0.0834,-1.90925 -0.0962,-1.14215 -0.2962,-10.51798 -0.2962,-13.88783 0,-2.3262 4.2e-4,-2.33166 0.21374,-2.74594 0.25438,-0.49401 0.76176,-0.80819 1.30241,-0.80645 0.51425,0.002 1.86615,0.29985 2.29034,0.50519 0.5036,0.24379 1.00288,0.80795 1.2137,1.37142 0.21991,0.58776 0.78029,3.08936 1.07769,4.81095 0.23376,1.35311 1.08738,4.85629 1.61953,6.64633 0.45247,1.52202 1.32809,3.81107 2.04038,5.334 0.87411,1.86888 2.40309,4.89682 3.292,6.51933 0.40818,0.74507 0.84621,1.60232 0.97338,1.905 0.29916,0.712 0.69421,2.90692 0.64995,3.61113 -0.0825,1.31288 -1.08521,2.24956 -2.10012,1.96185 z m -56.75922,-21.61496 c -0.70953,-0.2529 -1.21665,-0.98177 -1.61725,-2.32443 -0.24226,-0.81197 -0.27126,-1.42573 -0.0844,-1.78702 0.252,-0.48733 0.94633,-0.64945 1.45446,-0.33962 0.33156,0.20215 0.47535,0.4152 0.74552,1.10462 0.25336,0.64649 0.42164,0.84657 0.71154,0.84601 0.2786,-8.5e-4 0.57303,-0.2516 1.01675,-0.86702 0.1929,-0.26754 0.4449,-0.54815 0.56001,-0.62357 0.19236,-0.12603 0.22608,-0.12612 0.41699,-0.001 0.65673,0.43031 0.0954,2.39732 -0.96396,3.37814 -0.74074,0.6858 -1.47402,0.8868 -2.23964,0.61392 z m -16.94311,-0.56406 c -1.04534,-0.13162 -1.92332,-0.40001 -2.91136,-0.88997 -1.88748,-0.93599 -2.84279,-2.2365 -2.59868,-3.53772 0.0781,-0.41616 0.49659,-0.87592 0.85928,-0.94396 0.66494,-0.12474 1.09459,0.21636 1.38976,1.10336 0.24284,0.72975 0.47319,0.97778 0.90765,0.97735 0.6398,-8.4e-4 1.05559,-0.41608 1.62889,-1.62758 0.3712,-0.78439 0.69561,-1.12224 1.16845,-1.2168 0.364,-0.0728 0.83389,0.10317 1.03694,0.38833 0.41248,0.57928 0.29486,1.22911 -0.42978,2.37449 -0.42892,0.67796 -0.50336,0.85245 -0.4828,1.13174 0.0174,0.23696 0.0841,0.37401 0.23598,0.48533 0.25113,0.18404 0.46492,0.20032 1.50087,0.11433 0.89521,-0.0743 1.03913,-0.0149 1.03913,0.42868 0,0.55339 -0.63018,1.04358 -1.5634,1.21609 -0.56464,0.10438 -0.92875,0.10363 -1.78093,-0.004 z m 42.88366,-7.71324 c -0.98345,-0.52816 -1.55167,-2.10336 -1.10974,-3.07637 0.19624,-0.43206 0.68533,-0.84093 1.21728,-1.01761 0.63019,-0.20932 1.74563,-0.13802 2.36645,0.15126 1.22449,0.57056 1.81445,1.82639 1.3084,2.78519 -0.40603,0.76927 -1.37756,1.25595 -2.63939,1.32217 -0.68739,0.0361 -0.7993,0.0199 -1.143,-0.16464 z m -31.97872,-1.33129 c -0.36917,-0.2251 -0.51982,-0.55387 -0.63044,-1.37585 -0.12122,-0.90072 -0.0526,-1.88494 0.16578,-2.37869 0.23469,-0.53055 0.99032,-1.28981 1.39188,-1.39858 0.42361,-0.11473 0.87598,0.0152 1.17775,0.33823 0.45869,0.49103 0.43212,1.32273 -0.0904,2.83035 -0.46032,1.32812 -0.66857,1.73016 -1.01518,1.95983 -0.35311,0.23397 -0.64437,0.24117 -0.99937,0.0247 z m 88.573,-1.90102 c -0.72279,-0.31478 -1.04811,-1.0406 -2.98232,-6.65374 -1.28482,-3.72862 -1.52283,-4.47603 -1.79289,-5.63033 -0.0981,-0.4191 -0.32923,-1.22673 -0.51373,-1.79474 -0.41709,-1.28406 -0.60025,-2.06827 -0.88587,-3.79326 -0.12337,-0.74507 -0.31807,-1.86881 -0.43266,-2.4972 -0.29856,-1.63711 -0.76596,-5.2393 -0.87894,-6.7738 -0.15031,-2.04163 -0.2264,-2.61044 -0.38068,-2.8459 -0.0786,-0.11992 -0.35871,-0.31047 -0.62252,-0.42344 -1.41851,-0.60744 -1.8025,-0.96114 -2.08973,-1.92489 -0.1852,-0.6214 -0.29185,-2.11135 -0.29484,-4.11911 -0.003,-2.30528 -0.087,-2.45837 -1.08003,-1.97783 -0.61606,0.29813 -1.48807,0.33335 -1.99699,0.0807 -0.88061,-0.43723 -2.65412,-2.49881 -3.75781,-4.36817 -0.23369,-0.39582 -0.64193,-1.06257 -0.90719,-1.48167 -0.26526,-0.4191 -0.75286,-1.2573 -1.08355,-1.86266 -0.33068,-0.60537 -1.12217,-2.05317 -1.75885,-3.21734 -0.63667,-1.16416 -1.29036,-2.36431 -1.45263,-2.667 -0.16227,-0.30268 -0.46796,-0.85513 -0.67931,-1.22766 -0.21135,-0.37254 -0.82741,-1.52851 -1.36902,-2.56883 -0.54163,-1.04033 -1.05477,-1.99283 -1.14031,-2.11667 -0.0856,-0.12384 -0.41492,-0.70142 -0.73193,-1.2835 -0.80791,-1.48349 -2.35127,-4.08202 -3.5086,-5.90741 -0.53948,-0.85089 -1.13115,-1.78434 -1.31481,-2.07433 -0.18367,-0.28999 -1.23141,-1.88562 -2.32833,-3.54584 -3.15752,-4.77899 -4.63934,-7.20479 -6.27007,-10.26442 -0.87845,-1.64818 -1.25424,-2.16867 -1.56573,-2.16867 -0.3918,0 -1.48256,1.52976 -2.3544,3.302 -0.64626,1.31367 -0.63489,1.43669 0.29742,3.21733 1.12602,2.1506 1.66324,3.62364 2.09213,5.73658 0.39204,1.93139 0.46836,2.85625 0.46637,5.65109 -0.001,1.88113 -0.0393,2.8365 -0.14619,3.683 -0.0794,0.62865 -0.18335,1.6002 -0.23097,2.159 -0.0476,0.5588 -0.20137,1.71498 -0.34166,2.56927 -0.42709,2.60068 -0.7504,5.4099 -0.84127,7.30958 -0.12023,2.51363 -0.22196,3.59005 -0.51463,5.44582 -0.41602,2.63783 -0.54197,2.94889 -1.52557,3.76744 -1.21341,1.00981 -2.16276,1.51412 -3.75592,1.99523 -1.31142,0.39602 -1.62551,0.56283 -2.54391,1.351 -0.92167,0.79099 -1.11273,0.92428 -2.67122,1.86353 -2.53315,1.52666 -5.87776,3.03728 -7.86467,3.55214 -0.5325,0.13798 -2.86773,0.51093 -3.68811,0.58901 -1.13425,0.10795 -3.79757,0.29756 -4.91067,0.3496 -2.47237,0.11559 -4.50265,-0.36579 -6.46439,-1.5327 -3.37119,-2.0053 -6.09497,-5.29966 -7.27798,-8.80259 -0.35036,-1.03742 -0.66573,-2.51265 -0.78615,-3.67747 -0.12261,-1.18597 -0.0588,-3.48345 0.13421,-4.83153 0.20098,-1.40388 0.91153,-4.09841 1.41773,-5.37633 0.66319,-1.67421 1.93522,-4.10398 3.28004,-6.26533 1.28381,-2.06331 2.47195,-4.19684 2.84965,-5.11712 0.40187,-0.97917 0.35818,-1.26018 -0.44882,-2.88672 -1.06489,-2.14632 -1.27684,-2.86353 -1.90082,-6.43183 -0.44134,-2.52382 -0.38444,-4.06667 0.21535,-5.83949 0.26601,-0.78627 0.67176,-1.33583 1.23757,-1.67622 0.61591,-0.37053 0.91494,-0.45304 1.82588,-0.5038 1.18893,-0.0662 2.17751,0.28987 3.19649,1.15144 1.02056,0.86292 1.57168,1.76163 2.67489,4.36192 0.74958,1.76678 0.95487,2.17569 1.79516,3.57551 0.77778,1.29571 1.24361,1.85754 1.71925,2.0736 0.8328,0.37829 1.19238,0.13293 1.98917,-1.3573 0.59951,-1.12125 1.72512,-2.71846 2.7131,-3.84979 0.34925,-0.39991 0.70168,-0.85098 0.78317,-1.00234 0.30397,-0.56462 0.17796,-1.45256 -0.65822,-4.6382 -0.83264,-3.17218 -2.41128,-10.23284 -2.82791,-12.64817 -0.34411,-1.9949 -0.56091,-2.39544 -1.27156,-2.34926 -0.96779,0.0629 -4.03601,2.53116 -6.02581,4.84754 -0.53524,0.62309 -1.5495,1.82024 -2.2539,2.66035 -0.70439,0.8401 -1.61817,1.85275 -2.03061,2.25035 -0.79981,0.77101 -2.45903,1.9268 -3.45282,2.40518 -2.18049,1.04962 -3.50091,0.51366 -3.23882,-1.31465 0.0367,-0.25612 0.0963,-1.22767 0.1324,-2.159 0.057,-1.46968 0.09,-1.74702 0.24968,-2.09981 0.17322,-0.3826 1.00371,-1.82118 2.16038,-3.74219 0.28038,-0.46567 1.01941,-1.75628 1.64229,-2.86803 0.62287,-1.11175 1.35436,-2.40715 1.62553,-2.87867 0.46368,-0.80626 2.85218,-5.64204 4.27077,-8.64663 0.35177,-0.74507 0.98205,-2.21192 1.40061,-3.25967 0.41856,-1.04775 0.95167,-2.34951 1.18469,-2.89279 0.84778,-1.97661 1.10716,-3.10212 0.812,-3.52352 -0.19321,-0.27584 -0.46622,-0.39231 -1.70886,-0.72899 -3.02268,-0.81896 -5.40456,-1.74833 -7.74509,-3.02199 -2.43133,-1.32306 -4.94487,-2.54127 -6.96625,-3.37623 -3.2447,-1.34027 -4.23488,-1.8861 -4.59998,-2.53571 -0.22683,-0.40359 -0.23119,-0.64816 -0.0178,-0.99816 0.3016,-0.49463 0.75153,-0.63626 2.6281,-0.82725 4.86725,-0.49537 8.34325,-1.16692 10.54255,-2.03677 0.54527,-0.21566 1.84098,-0.80562 2.87936,-1.31102 2.2557,-1.0979 2.66475,-1.41309 2.66475,-2.05327 0,-0.24604 -0.15749,-0.85318 -0.42654,-1.64435 -0.78683,-2.31372 -0.99659,-3.34759 -1.27849,-6.30141 -0.28402,-2.97597 -0.26068,-5.20526 0.0859,-8.20321 0.36947,-3.19625 0.72417,-5.21972 1.28377,-7.32366 0.94149,-3.53971 1.60665,-4.64768 3.72206,-6.19992 0.44238,-0.32461 1.10913,-0.84777 1.48167,-1.16257 0.91772,-0.77552 1.26059,-0.92357 2.02499,-0.87438 0.50922,0.0328 0.71673,0.0994 1.37567,0.44186 1.01344,0.52667 1.06962,0.51378 2.13213,-0.4893 0.79071,-0.74649 3.32517,-2.67528 4.59338,-3.49568 0.7833,-0.50671 4.00916,-2.07693 4.82702,-2.34959 2.75859,-0.91969 5.31703,-0.43981 5.98952,1.12343 0.20971,0.48749 0.31827,1.53956 0.43078,4.17485 0.0431,1.01019 0.11878,1.91211 0.1681,2.00427 0.38279,0.71525 1.10034,0.69987 5.25541,-0.11268 0.81491,-0.15936 2.16746,-0.36936 3.00566,-0.46667 0.8382,-0.0973 1.7526,-0.21281 2.032,-0.25667 0.2794,-0.0439 1.1938,-0.15752 2.032,-0.25258 0.8382,-0.0951 2.15265,-0.26491 2.921,-0.37746 0.76835,-0.11255 2.1209,-0.28538 3.00567,-0.38408 2.44753,-0.27302 3.26148,-0.38353 5.92667,-0.80461 3.62374,-0.57253 4.00247,-0.62003 5.715,-0.71671 2.1592,-0.12189 3.33627,-0.11091 4.3918,0.041 2.56739,0.36939 4.15491,1.23987 4.87076,2.67076 0.31589,0.63142 0.75724,2.34017 0.89443,3.46289 0.23404,1.91533 -0.0669,7.12677 -0.59411,10.28739 -0.1842,1.10435 -0.58271,2.87756 -0.8551,3.80478 -0.69847,2.37769 -1.27206,4.58177 -1.31384,5.04857 -0.0456,0.50898 -0.032,0.5746 0.16626,0.80434 0.21477,0.24887 0.22032,0.25007 1.09033,0.23751 0.90313,-0.0131 1.93383,-0.16065 4.66241,-0.66769 0.87263,-0.16216 2.56808,-0.43006 3.76767,-0.59533 2.14139,-0.29503 4.01816,-0.60394 6.11805,-1.00702 1.73966,-0.33392 2.8601,-0.42526 5.16467,-0.42103 3.95875,0.007 5.59202,0.39263 6.0985,1.43886 0.18229,0.37658 0.18942,0.44511 0.10029,0.96485 -0.0528,0.30772 -0.36049,1.3774 -0.68383,2.37707 -0.82887,2.56255 -2.31787,7.37755 -2.66978,8.63325 -0.84238,3.00586 -1.91492,7.76685 -2.20298,9.779 -0.32027,2.2372 -0.4763,3.44813 -0.55635,4.318 -0.12624,1.37184 -0.104,4.62697 0.0422,6.18067 0.31558,3.35278 0.74803,6.69406 1.02437,7.91471 0.35232,1.55629 0.95845,2.96365 1.51694,3.52214 0.45698,0.45699 0.85797,0.65858 3.80122,1.91101 4.69709,1.99873 7.88317,3.70232 10.65328,5.69629 0.22123,0.15924 0.70538,0.38767 1.0759,0.50761 0.37051,0.11995 1.02771,0.3746 1.46043,0.5659 2.56039,1.13193 4.347646,1.70578 6.417096,2.06042 1.85723,0.31828 3.82499,0.76522 4.84306,1.10004 1.01875,0.33504 2.91373,1.12117 3.72468,1.54518 1.319472,0.68991 1.669332,1.53759 0.901322,2.18382 -0.34323,0.28881 -0.67137,0.36784 -2.314722,0.55749 -2.1622,0.24953 -3.87705,0.49376 -4.77945,0.68068 -0.4447,0.0921 -1.3991,0.25935 -2.12089,0.37163 -0.72178,0.11228 -1.99813,0.33696 -2.836326,0.49928 -0.8382,0.16232 -2.22885,0.41288 -3.09033,0.55681 -1.87425,0.31314 -3.53746,0.67777 -6.43467,1.4107 -2.51725,0.63682 -3.08596,0.81564 -5.75733,1.81031 -1.09432,0.40747 -2.19922,0.78866 -2.45534,0.84708 -0.63926,0.14582 -0.9667,0.32661 -1.60866,0.8882 -0.73008,0.63866 -1.07363,0.86843 -2.032,1.35904 -0.83319,0.42651 -2.9143,1.94486 -4.46197,3.25539 -0.475,0.40221 -1.40254,1.10794 -2.0612,1.56828 -0.65866,0.46034 -1.36441,1.02256 -1.56834,1.24937 -0.20394,0.22682 -0.6651,0.89515 -1.02482,1.48517 -0.35972,0.59003 -0.94556,1.51093 -1.30188,2.04645 -0.35631,0.53551 -0.85053,1.33561 -1.09825,1.778 -0.57413,1.02529 -0.96437,1.5975 -1.559,2.286 -0.44065,0.51021 -0.73175,1.02488 -1.24325,2.19812 -0.32198,0.73852 -1.27767,2.11089 -2.83283,4.06799 -1.57877,1.9868 -1.84884,2.36074 -2.18341,3.02324 -0.42492,0.84142 -0.23656,0.93261 0.44308,0.21448 0.25341,-0.26776 0.83099,-0.92498 1.28353,-1.4605 0.45253,-0.53552 1.10386,-1.23982 1.4474,-1.56511 0.34353,-0.3253 0.93042,-0.95395 1.30421,-1.397 0.4498,-0.53317 1.33729,-1.37165 2.62466,-2.47974 1.06978,-0.92079 2.78327,-2.46836 3.80773,-3.43904 2.31312,-2.19165 2.34471,-2.21916 3.429,-2.98529 1.19487,-0.84426 1.74789,-1.18208 3.34434,-2.0429 2.71379,-1.46332 5.64385,-2.57816 7.19316,-2.73689 0.77116,-0.079 1.58479,0.0863 3.42319,0.6957 1.88001,0.62316 2.53674,0.94241 3.31131,1.60971 0.30269,0.26077 0.8944,0.75065 1.31491,1.08863 1.25715,1.0104 1.97607,1.88601 2.65658,3.23559 0.56225,1.11506 0.85363,2.10809 0.94727,3.22829 0.29879,3.57465 0.53001,5.13232 1.82453,12.29138 0.24418,1.35037 0.29585,2.47981 0.20425,4.46445 -0.11159,2.41753 -0.42227,4.50145 -1.03012,6.90954 -0.0921,0.36501 -0.20524,1.20321 -0.25136,1.86267 -0.10317,1.47503 -0.31214,2.73654 -0.80876,4.88201 -0.43957,1.89907 -0.56112,2.54635 -0.74813,3.9838 -0.0741,0.56946 -0.24923,1.57294 -0.38923,2.22996 -0.13998,0.65702 -0.36841,1.91847 -0.50761,2.80324 -0.24048,1.5286 -0.66623,4.03361 -1.14398,6.731 -0.11959,0.67522 -0.30683,1.62812 -0.41608,2.11755 -0.44687,2.00192 -0.88519,7.92007 -0.71794,9.69345 0.1365,1.44733 0.0144,1.95952 -0.60941,2.55638 -0.60332,0.57725 -1.66036,0.7964 -2.32352,0.48171 -0.46627,-0.22126 -1.03945,-0.93307 -1.87267,-2.3256 -1.02104,-1.70642 -1.78723,-3.3303 -2.30189,-4.87865 -0.85276,-2.56547 -1.86832,-7.20653 -2.58994,-11.83584 -0.5913,-3.79335 -0.62687,-3.937 -0.97467,-3.937 -0.61087,0 -1.73904,3.39787 -2.48785,7.493 -0.43499,2.37888 -0.45699,3.22549 -0.17379,6.68867 0.0685,0.8382 0.16055,1.96215 0.20446,2.49766 0.0439,0.53552 0.1033,1.33562 0.13198,1.778 0.0287,0.44239 0.12802,1.20439 0.22076,1.69334 0.21241,1.11986 0.16437,1.62371 -0.20764,2.17771 -0.57057,0.84969 -1.89377,1.19039 -2.65827,0.68447 -0.20461,-0.1354 -0.44741,-0.41074 -0.59729,-0.67733 -0.74795,-1.33037 -3.64973,-11.3272 -4.97191,-17.12852 -0.31867,-1.39828 -0.60356,-2.27332 -0.79714,-2.44852 -0.15544,-0.14066 -0.17091,-0.13977 -0.32959,0.0189 -0.24714,0.24713 -0.4816,0.93703 -1.08469,3.19161 -0.56287,2.10424 -0.83311,3.43729 -0.91825,4.52967 -0.0272,0.34925 -0.10558,1.2827 -0.17416,2.07433 -0.0686,0.79163 -0.12509,2.22038 -0.12561,3.175 -0.001,1.98713 -0.26762,5.59158 -0.46071,6.23032 -0.39506,1.30678 -1.83652,2.15174 -2.88892,1.69342 z m 24.8814,-10.86735 c 0.0729,-0.26697 0.21298,-0.98069 0.31134,-1.58606 0.0983,-0.60536 0.30965,-1.80551 0.46953,-2.667 0.15989,-0.86148 0.38742,-2.19498 0.50562,-2.96333 0.1182,-0.76835 0.32632,-1.98755 0.46251,-2.70933 0.13618,-0.72179 0.38586,-2.05529 0.55486,-2.96334 0.42915,-2.30601 1.3042,-6.61915 1.81218,-8.93233 0.55825,-2.54201 0.66479,-3.48089 0.53126,-4.68174 -0.17282,-1.55421 -0.1398,-2.0036 0.27453,-3.73604 0.2069,-0.86509 0.44394,-2.03009 0.52677,-2.58889 0.27836,-1.87792 0.16803,-5.13508 -0.228,-6.731 -0.0404,-0.16298 -0.23123,-1.32503 -0.42395,-2.58233 -0.19272,-1.2573 -0.46249,-2.83845 -0.59948,-3.51367 -0.33979,-1.67486 -0.48259,-2.58958 -0.62513,-4.0042 -0.26867,-2.66643 -1.07859,-4.68808 -2.35033,-5.86669 -0.81324,-0.7537 -1.78871,-1.44356 -2.26478,-1.60168 -0.47613,-0.15814 -0.84594,-0.11432 -0.84594,0.10025 0,0.15959 0.27942,0.658 0.84577,1.50866 0.56434,0.84761 1.04786,1.76469 1.31689,2.49766 0.18747,0.51077 0.23404,0.78409 0.238,1.397 0.008,1.18859 -0.25126,1.64796 -1.63599,2.90205 -0.9995,0.90519 -1.43489,1.14348 -2.07876,1.1377 -0.62139,-0.006 -1.14076,-0.28019 -1.71479,-0.90664 -0.55277,-0.60326 -0.94685,-1.34985 -1.53474,-2.9076 -0.63778,-1.68993 -0.98519,-2.12786 -2.02044,-2.54688 -0.36021,-0.1458 -0.93895,-0.43561 -1.28608,-0.64402 -0.382,-0.22936 -0.73292,-0.37861 -0.889,-0.37811 -0.34083,0.001 -1.02854,0.32769 -1.60249,0.76103 -0.74392,0.56166 -0.85745,0.8395 -0.65097,1.59315 0.12262,0.44753 0.0175,0.83151 -0.33869,1.23718 -0.3225,0.36731 -0.43299,0.6737 -0.33546,0.93023 0.0996,0.26206 0.35281,0.34296 0.93409,0.29848 0.25611,-0.0196 0.94486,-0.036 1.53055,-0.0364 l 1.06489,-8.4e-4 0.75544,0.37343 c 0.6282,0.31051 0.88381,0.5037 1.51745,1.1468 0.94171,0.95577 1.35923,1.64282 2.29419,3.77524 1.0551,2.40643 1.09285,2.55283 1.0906,4.22953 -0.002,1.34577 -0.0115,1.4242 -0.26541,2.13878 -0.63054,1.77487 -1.6362,2.84354 -4.13538,4.39455 -0.5588,0.3468 -1.2065,0.77706 -1.43933,0.95614 -0.60672,0.46664 -1.08033,0.65546 -1.6441,0.65546 -0.69494,0 -1.14875,-0.24491 -1.80467,-0.97395 -0.41748,-0.46402 -0.72781,-0.70895 -1.30138,-1.02715 -1.63138,-0.90504 -2.29165,-1.48533 -2.79491,-2.45635 -0.4545,-0.87696 -0.67687,-1.14701 -0.94709,-1.15011 -0.12568,-0.001 -0.64762,0.20973 -1.15985,0.46926 -2.32742,1.17923 -4.27232,0.86295 -4.74763,-0.77206 -0.10926,-0.37588 -0.13164,-0.76412 -0.10808,-1.87537 0.022,-1.03668 0.003,-1.41044 -0.0719,-1.43626 -0.17918,-0.0615 -0.87063,0.65846 -2.06262,2.14779 -1.25968,1.57391 -1.58346,2.0267 -2.32383,3.24987 -0.2669,0.44095 -0.80393,1.22657 -1.19338,1.74581 -0.94549,1.26058 -1.24501,1.78435 -1.55918,2.72652 -0.20612,0.61809 -0.2652,0.94425 -0.2692,1.48583 -0.007,0.94084 0.16925,1.25882 0.95904,1.73076 0.5057,0.3022 0.97972,0.88164 1.12967,1.38093 0.0747,0.24891 0.19147,1.13835 0.25938,1.97655 0.24715,3.05034 0.46272,6.28104 0.46327,6.94266 0,0.37254 0.0743,1.17264 0.16441,1.778 0.0901,0.60537 0.22411,1.57692 0.29776,2.159 0.33211,2.62462 0.97589,6.34718 1.36907,7.91634 0.55096,2.19886 1.16067,4.3572 1.41905,5.02335 0.79615,2.0526 1.1813,2.42137 1.40091,1.34131 0.049,-0.2409 0.18485,-1.20758 0.30194,-2.1482 0.322,-2.58674 0.38354,-2.86097 2.22871,-9.93146 1.26379,-4.8427 1.52863,-5.9153 1.66194,-6.731 0.19819,-1.21278 0.33921,-1.59054 0.72323,-1.93749 0.90495,-0.81756 2.47045,-0.49419 3.04878,0.62976 0.17699,0.34396 0.3045,1.00716 0.38166,1.98506 0.24642,3.12304 1.74625,10.80952 2.31418,11.85998 0.45044,0.83315 0.67954,0.55823 1.1922,-1.43074 0.90892,-3.52631 1.48329,-5.28228 2.77189,-8.47419 0.4905,-1.21497 1.05896,-2.6575 1.26326,-3.20561 0.4303,-1.15446 0.65891,-1.6337 0.91185,-1.91151 0.69103,-0.759 2.18801,-0.73975 2.96635,0.0381 0.43428,0.43402 0.63298,1.01522 0.85528,2.50165 0.22775,1.5228 0.54032,3.80284 0.79915,5.82929 0.45659,3.57468 0.74158,5.35627 1.27285,7.9572 0.80722,3.95192 1.13869,5.1539 1.54008,5.58474 0.22891,0.2457 0.35294,0.1305 0.52057,-0.48355 z m -81.48059,-25.31368 c 2.24568,-1.14265 2.73816,-1.43163 3.53155,-2.0723 1.38505,-1.11842 2.11854,-2.91372 1.33609,-3.27022 -0.11772,-0.0536 -0.43835,-0.0975 -0.71253,-0.0975 -0.58984,0 -0.89173,-0.10048 -1.20778,-0.40199 -0.30637,-0.29227 -0.49763,-0.82576 -0.82796,-2.30942 -0.42532,-1.91035 -0.51353,-2.01607 -1.598,-1.91528 -1.25177,0.11634 -1.72742,-0.32985 -2.17678,-2.04199 -0.49064,-1.8694 -0.71977,-2.29853 -1.55486,-2.91206 -0.2573,-0.18903 -0.68467,-0.57142 -0.94971,-0.84976 -0.54795,-0.57542 -0.62959,-0.58297 -1.21144,-0.11212 -0.41748,0.33783 -1.08698,0.6809 -1.48167,0.75924 -0.71873,0.14266 -0.84666,0.21495 -0.84666,0.47849 0,0.13712 0.14722,0.54374 0.32715,0.9036 0.17993,0.35986 0.5076,1.07339 0.72816,1.58562 0.66528,1.54507 1.23115,2.56035 1.69259,3.03686 0.56574,0.5842 1.46506,1.32347 1.61,1.32347 0.0637,0 0.32023,-0.18685 0.5701,-0.41522 0.8322,-0.76058 1.68821,-1.02882 2.37175,-0.74323 0.39273,0.1641 0.80378,0.72582 0.87406,1.19446 0.1241,0.82759 -0.46694,2.94645 -1.10543,3.9629 -0.3756,0.59794 -0.56136,0.96216 -1.39349,2.73209 -0.28495,0.60609 -0.54668,1.00995 -0.92111,1.4213 -0.43747,0.48061 -0.50902,0.60086 -0.43727,0.73492 0.23955,0.44761 0.98204,0.22994 3.38324,-0.99184 z m -6.13947,0.60758 c 0.15103,-0.15103 0.16877,-0.45045 0.0523,-0.88296 -0.0439,-0.16298 -0.13989,-0.85468 -0.21336,-1.53711 -0.16296,-1.51365 -0.31218,-2.04942 -0.67062,-2.40787 -0.33615,-0.33615 -0.754,-0.4566 -1.58608,-0.45721 -0.48593,0 -0.67331,0.0327 -0.75691,0.1334 -0.13539,0.16314 -0.132,0.16908 0.71925,1.25806 0.77943,0.9971 1.18341,1.81416 1.40978,2.85135 0.20789,0.95252 0.34362,1.17139 0.72813,1.17409 0.10145,8.5e-4 0.24432,-0.0586 0.3175,-0.13175 z m -13.84354,-1.23201 c 0.44282,-0.15437 0.46543,-0.35179 0.21631,-1.88825 -0.37618,-2.32001 -0.63967,-3.531 -0.95015,-4.3667 -0.65996,-1.7764 -0.80024,-2.24906 -0.84563,-2.84927 -0.0354,-0.46834 -0.0116,-0.71104 0.0978,-0.99755 0.47569,-1.24558 2.293,-1.45474 3.0818,-0.35469 0.16345,0.22793 0.51086,1.23752 1.2127,3.52418 0.0929,0.30268 0.24772,0.63459 0.34403,0.73756 0.20663,0.22093 0.28765,0.19101 0.88654,-0.32732 0.50087,-0.43351 0.79404,-0.55862 1.66869,-0.71214 0.71686,-0.12583 1.03853,-0.29467 1.21476,-0.63759 0.13435,-0.26141 0.13113,-0.56754 -0.019,-1.81218 -0.14321,-1.18695 -0.16293,-2.62833 -0.0445,-3.25283 0.0459,-0.24179 0.19549,-0.6941 0.33252,-1.00513 0.40233,-0.9132 0.14286,-0.98556 -1.22895,-0.34271 -0.95844,0.44914 -1.58907,0.51525 -2.14944,0.22536 -0.36576,-0.18923 -0.71928,-0.61282 -1.60885,-1.92776 -0.43428,-0.64195 -0.31642,-1.13286 0.42732,-1.77974 0.712,-0.61928 0.7044,-0.58802 1.09203,-4.49019 0.27253,-2.74353 0.61306,-4.96752 0.86413,-5.6436 0.34898,-0.93976 1.28382,-1.46077 2.74964,-1.53244 0.79059,-0.0386 0.89551,-0.0248 1.33372,0.1758 0.54562,0.2498 1.19996,0.83881 1.89026,1.70154 0.94365,1.17939 1.29425,1.46528 1.29425,1.05536 0,-0.0986 -0.0653,-0.49649 -0.14507,-0.88412 -0.12424,-0.60356 -0.13031,-0.79081 -0.0423,-1.30389 0.16635,-0.97004 0.14478,-1.08192 -0.43511,-2.2574 -0.64364,-1.30468 -0.84407,-1.55834 -1.47687,-1.86909 -0.46302,-0.22737 -0.53536,-0.23724 -1.75295,-0.23925 -1.39186,-0.002 -1.51449,-0.0351 -2.20133,-0.58796 -0.72775,-0.58584 -0.94743,-0.60241 -1.43791,-0.10845 -0.44504,0.4482 -0.69518,1.09626 -0.76478,1.98141 -0.0677,0.86103 -0.21258,1.24933 -0.7253,1.9439 -0.23079,0.31264 -0.67254,1.02896 -0.98167,1.59182 -0.80169,1.45974 -1.53868,2.63764 -2.44141,3.90204 -1.63873,2.29528 -3.47629,5.703 -3.94917,7.32367 -0.28986,0.99343 -0.81575,3.16287 -0.91663,3.78137 -0.36741,2.2525 -0.18693,5.25623 0.43922,7.30996 0.20895,0.68535 1.20014,2.73593 1.67793,3.47133 0.46403,0.71423 1.44547,1.88128 1.78596,2.12372 0.5311,0.37818 1.0357,0.4857 1.50751,0.32123 z m 29.26798,-5.02102 c 0.67246,-0.30711 0.91385,-0.70379 1.21458,-1.99593 0.27329,-1.17423 0.41542,-2.53458 0.51136,-4.89415 0.10758,-2.64587 0.13814,-2.90917 0.63326,-5.45513 0.67342,-3.46291 1.23008,-7.81874 1.23008,-9.6254 0,-2.25811 -0.42095,-5.75027 -0.88606,-7.35076 -0.27446,-0.94447 -0.87428,-2.53938 -1.19048,-3.1655 -0.23304,-0.46144 -0.55096,-0.75106 -0.82448,-0.75106 -0.45779,0 -0.57866,0.17692 -2.68992,3.937 -1.59144,2.83432 -1.88495,3.39656 -2.8807,5.51817 -1.13445,2.41715 -2.15833,5.29666 -2.36102,6.64004 -0.11813,0.78288 -0.0613,1.18502 0.41079,2.90539 0.19059,0.69462 0.34653,1.31042 0.34653,1.36847 0,0.0581 0.15012,0.60459 0.3336,1.21453 0.3851,1.28023 0.67498,2.56965 0.9817,4.36674 0.52041,3.04906 0.63817,3.33751 1.62408,3.97789 0.46249,0.30041 0.75962,0.77728 1.28882,2.06848 0.23692,0.57807 0.47786,1.10778 0.53542,1.17714 0.32363,0.38995 0.95727,0.41352 1.72244,0.0641 z m 34.24408,-1.44559 c 0.12224,-0.18627 0.45278,-0.87207 0.73452,-1.524 1.12255,-2.59759 2.66716,-5.7529 3.80153,-7.76574 0.41258,-0.73209 0.9168,-1.63534 1.12048,-2.00722 0.20368,-0.37188 0.69267,-1.04925 1.08663,-1.50526 0.39396,-0.45601 0.9863,-1.26727 1.3163,-1.80278 1.18378,-1.92097 3.82806,-5.9354 5.74181,-8.71695 0.89764,-1.30469 2.52879,-3.9923 3.12516,-5.14927 0.43631,-0.84644 0.79667,-1.18315 1.87329,-1.75036 0.43733,-0.23041 1.55715,-0.93294 2.48848,-1.5612 0.93133,-0.62827 2.36008,-1.55212 3.175,-2.05302 0.81492,-0.5009 1.98724,-1.22126 2.60515,-1.60081 0.61792,-0.37954 1.54695,-0.87579 2.06451,-1.10276 0.51757,-0.22697 1.3074,-0.62076 1.75518,-0.8751 0.44779,-0.25433 1.06181,-0.52488 1.36449,-0.60121 0.30269,-0.0763 1.06469,-0.34233 1.69334,-0.5911 3.39186,-1.34227 7.20167,-2.26022 15.493996,-3.73324 4.04891,-0.71922 5.71175,-1.11108 5.8817,-1.38606 0.0731,-0.11832 -0.16367,-0.39978 -0.46933,-0.55784 -0.35978,-0.18605 -1.66074,-0.51946 -2.78771,-0.71444 -2.31457,-0.40044 -4.504196,-0.94584 -5.799656,-1.44458 -1.25485,-0.48311 -2.78997,-1.2028 -3.38667,-1.58772 -0.32597,-0.21027 -0.91652,-0.55993 -1.31233,-0.77702 -0.39582,-0.21708 -1.40547,-0.79613 -2.24367,-1.28676 -2.85698,-1.67229 -4.60506,-2.57774 -6.64633,-3.44258 -0.44239,-0.18743 -1.16629,-0.5003 -1.60867,-0.69527 -0.44238,-0.19497 -1.39488,-0.58076 -2.11667,-0.85733 -3.49673,-1.33981 -3.98001,-1.84831 -4.52547,-4.76163 -0.80228,-4.28493 -1.32466,-9.337 -1.3403,-12.96208 -0.007,-1.60764 0.0319,-2.30181 0.22271,-3.97934 0.26392,-2.32054 0.70688,-5.20838 1.02352,-6.67286 0.44628,-2.06399 2.01129,-7.98074 2.75875,-10.4298 1.04599,-3.42728 1.52899,-5.24415 1.53744,-5.78337 0.006,-0.37696 -0.0294,-0.48737 -0.21896,-0.68526 -0.33655,-0.35129 -0.71914,-0.43769 -2.17469,-0.4911 -1.6827,-0.0617 -2.46341,0.0221 -6.46284,0.69436 -1.7731,0.29802 -3.79532,0.6211 -4.49382,0.71795 -1.69649,0.23524 -3.56269,0.55303 -4.73109,0.80564 -1.52746,0.33025 -4.41495,0.6457 -7.07991,0.77346 -0.94757,0.0454 -0.98614,0.0402 -1.43892,-0.19384 -1.01969,-0.52712 -1.1926,-1.39511 -0.68886,-3.45784 0.14784,-0.60537 0.43806,-1.61502 0.64493,-2.24367 0.75806,-2.30361 1.52155,-5.38413 1.82104,-7.34748 0.33745,-2.21231 0.54236,-5.01361 0.54633,-7.46919 0.003,-2.1309 -0.0131,-2.4073 -0.19502,-3.25966 -0.35243,-1.65111 -0.73228,-2.17385 -1.8325,-2.52187 -0.54838,-0.17346 -0.75401,-0.18729 -2.75167,-0.18501 -2.31803,0.003 -3.11002,0.0822 -8.42433,0.84622 -1.1176,0.16068 -2.69875,0.36892 -3.51367,0.46276 -1.86233,0.21446 -6.35925,0.79052 -8.255,1.05748 -0.79163,0.11148 -1.80129,0.24603 -2.24367,0.29902 -0.76208,0.0913 -1.5818,0.23084 -5.969,1.01628 -2.67933,0.47969 -4.65254,0.76078 -5.3404,0.76078 -1.01762,0 -1.74558,-0.49392 -1.98191,-1.3447 -0.0487,-0.17534 -0.0861,-1.48275 -0.0876,-3.05797 -0.001,-1.51342 -0.0365,-2.89822 -0.0781,-3.07735 -0.0416,-0.17912 -0.1616,-0.41725 -0.26674,-0.52916 -0.38752,-0.4125 -1.01964,-0.24287 -3.20964,0.86134 -1.52191,0.76734 -4.38289,2.73336 -5.40806,3.71631 -1.32037,1.266 -2.52598,3.08608 -2.71925,4.10521 -0.12597,0.66424 0.0116,1.32379 0.63998,3.06739 0.64041,1.7771 0.83568,2.55191 0.96691,3.8366 0.68318,6.68802 0.92698,8.35196 1.526,10.41456 0.13533,0.46598 0.36278,1.40856 0.50546,2.09463 0.14267,0.68607 0.39191,1.67 0.55385,2.18651 0.5074,1.61832 0.36262,2.3041 -0.59456,2.81636 -0.26992,0.14445 -0.48601,0.18145 -1.06452,0.18226 -0.64145,8.9e-4 -0.76464,-0.0247 -1.05949,-0.21978 -0.66778,-0.44192 -0.81905,-0.9067 -1.67793,-5.15554 -0.28492,-1.40948 -0.55449,-3.05921 -0.68308,-4.18033 -0.11683,-1.0186 -0.26832,-2.18065 -0.33666,-2.58234 -0.0683,-0.40168 -0.2042,-1.32088 -0.30193,-2.04266 -0.28206,-2.08307 -0.37524,-2.38392 -1.75706,-5.67267 -0.67662,-1.61038 -1.03935,-2.63314 -1.32834,-3.7454 -0.27667,-1.06484 -0.34237,-1.21832 -0.59132,-1.38144 -0.20139,-0.13196 -0.23332,-0.13052 -0.53295,0.0239 -0.41047,0.21155 -0.82423,0.76119 -1.47477,1.95908 -0.75125,1.38333 -0.85309,1.68224 -1.37407,4.03286 -0.97357,4.39268 -1.14056,6.26867 -0.89699,10.07678 0.33553,5.2459 0.9088,7.79884 2.27681,10.13932 0.56862,0.97283 0.68086,1.3974 0.49009,1.85397 -0.17335,0.41488 -0.56111,0.6861 -1.48502,1.03867 -0.43253,0.16506 -1.72699,0.71535 -2.87659,1.22287 -3.95022,1.74393 -5.71224,2.30415 -9.20218,2.92578 -2.01024,0.35807 -2.28703,0.42964 -2.5051,0.64771 -0.34819,0.34819 0.10427,0.67338 2.1241,1.52666 1.60486,0.67798 2.2674,1.01486 3.78273,1.92344 1.79666,1.07725 2.52385,1.45337 4.0066,2.07228 2.1692,0.90544 3.35471,1.25028 6.28289,1.8276 1.79157,0.35323 2.17034,0.5046 2.4068,0.96187 0.21242,0.41077 0.1029,0.80755 -0.50069,1.81388 -0.67514,1.12564 -0.85812,1.48837 -1.40163,2.7785 -0.23541,0.5588 -0.70091,1.6256 -1.03443,2.37067 -0.33352,0.74507 -0.80761,1.81813 -1.05353,2.38459 -0.24592,0.56647 -0.64399,1.37916 -0.88461,1.80599 -0.24061,0.42683 -0.58473,1.1107 -0.76472,1.5197 -0.17998,0.409 -0.87761,1.86326 -1.55028,3.23168 -0.67266,1.36842 -1.4928,3.04049 -1.82253,3.71571 -0.32972,0.67521 -0.79885,1.57056 -1.04251,1.98966 -3.38101,5.81548 -4.01689,7.0164 -4.14678,7.83167 -0.0881,0.55303 -0.0428,1.18485 0.10469,1.4605 0.0919,0.1718 0.451,0.19134 0.72302,0.0393 0.4198,-0.23458 1.383,-1.1812 2.4649,-2.42244 3.73678,-4.28715 6.55758,-6.72976 9.20525,-7.97108 1.48061,-0.69416 2.46089,-1.02477 3.04851,-1.02816 0.56279,-0.003 0.79675,0.0816 1.16086,0.42116 0.29397,0.27411 0.37248,0.52303 0.52645,1.66902 0.40598,3.02173 0.83133,5.39597 1.40304,7.83167 0.18035,0.76835 0.48477,2.17805 0.67648,3.13267 0.28599,1.42404 0.95458,4.06955 1.66149,6.57426 0.0677,0.23976 0.21488,0.53503 0.32714,0.65617 0.27149,0.29293 0.6079,0.28717 1.82959,-0.0314 1.59192,-0.41505 3.01767,-0.61693 4.39394,-0.62216 1.43352,-0.005 2.30463,0.11714 3.302,0.46471 1.4478,0.50454 1.61639,0.5008 2.09589,-0.0465 0.20301,-0.2317 1.7013,-2.69577 3.18557,-5.23897 0.26519,-0.45437 0.59476,-0.95438 0.7324,-1.11114 0.60703,-0.69137 1.94083,-0.86732 2.59024,-0.34171 0.42189,0.34146 0.57543,0.66204 0.92112,1.92325 0.16033,0.58494 0.43407,1.45673 0.60831,1.9373 0.32476,0.89573 1.84456,3.96691 2.67393,5.40344 0.75674,1.31071 1.9195,3.23437 2.17544,3.599 0.131,0.18664 0.47515,0.77355 0.76479,1.30424 0.64566,1.18305 0.86075,1.5111 1.79086,2.73139 0.40271,0.52836 1.04043,1.44836 1.41714,2.04444 0.37671,0.59607 0.85556,1.30554 1.06411,1.57658 0.4734,0.61522 1.56463,2.35039 2.55894,4.06901 0.4176,0.72179 1.02656,1.76954 1.35327,2.32834 0.32671,0.5588 0.77807,1.3589 1.00302,1.778 0.22495,0.4191 0.7014,1.27635 1.05879,1.905 0.35738,0.62865 0.92728,1.65735 1.26645,2.286 0.33917,0.62865 0.82718,1.46685 1.08447,1.86266 0.25728,0.39582 0.84866,1.44357 1.31416,2.32834 1.91072,3.63166 2.69808,4.96908 4.03743,6.858 0.87313,1.23138 1.34434,1.4326 1.78447,0.762 z m 17.74796,-9.09215 c 1.0267,-0.74374 2.39724,-3.39199 2.39724,-4.63212 0,-0.62421 -0.14073,-0.80378 -0.55644,-0.71002 -0.40525,0.0914 -0.67122,0.28142 -0.98002,0.70018 -0.80538,1.09213 -1.79519,4.18709 -1.5097,4.72054 0.12043,0.22504 0.25173,0.20914 0.64892,-0.0786 z m -71.87176,-2.90061 c 0.35398,-0.0605 0.62143,-0.16488 0.79335,-0.30954 0.24146,-0.20317 0.25627,-0.24778 0.21473,-0.64663 -0.0905,-0.86933 -1.53603,-3.88093 -2.18987,-4.5625 -0.34079,-0.35524 -0.4169,-0.39813 -0.56545,-0.31863 -0.22738,0.12169 -0.3173,0.62059 -0.4363,2.42072 -0.14981,2.26606 -0.14343,2.94795 0.0301,3.21273 0.0812,0.12396 0.23117,0.26127 0.33323,0.30514 0.20134,0.0865 0.97297,0.0436 1.82024,-0.10129 z m 11.6648,-9.49141 c 0.12843,-0.15134 0.68269,-1.18957 1.23168,-2.30717 0.54898,-1.1176 1.21276,-2.413 1.47506,-2.87866 0.2623,-0.46567 0.8219,-1.47532 1.24355,-2.24367 0.42166,-0.76835 1.24138,-2.24791 1.82162,-3.28791 0.68532,-1.22837 1.07112,-2.01132 1.10106,-2.23455 0.0613,-0.45714 -0.13033,-0.79973 -0.63827,-1.14099 -0.64141,-0.43094 -1.26133,-0.57596 -2.4315,-0.56884 -1.16816,0.007 -2.04606,0.1676 -3.29527,0.60243 -1.10921,0.38608 -1.59243,0.6379 -1.99319,1.03865 -0.44822,0.44822 -0.498,0.82036 -0.30626,2.28921 0.29758,2.27957 0.46645,3.93181 0.556,5.43969 0.0502,0.84605 0.10847,1.61605 0.1294,1.71112 0.0209,0.0951 0.0967,0.83961 0.16839,1.65452 0.18792,2.13636 0.39624,2.56424 0.93773,1.92617 z m -4.49538,-4.66645 c 0.23111,-0.16899 0.25848,-0.90817 0.0854,-2.30507 -0.18272,-1.4745 -0.34616,-2.01347 -0.62243,-2.05257 -0.29626,-0.0419 -0.62059,0.31961 -0.98681,1.10002 -0.32688,0.69656 -0.4721,1.55499 -0.34722,2.05254 0.11586,0.46163 1.11371,1.3207 1.53406,1.3207 0.0984,0 0.25006,-0.052 0.33703,-0.11562 z m -13.93345,-3.32115 c 0.6598,-0.36 0.9897,-0.65225 1.06216,-0.94096 0.0785,-0.31287 -0.14204,-0.98067 -0.94508,-2.86127 -0.92005,-2.15467 -0.9963,-2.30495 -1.36388,-2.68817 -0.7768,-0.80986 -1.18886,0.0312 -0.95109,1.94131 0.31632,2.541 0.68237,4.1936 1.02552,4.62985 0.23867,0.30341 0.50143,0.28531 1.17237,-0.0808 z m -18.57731,66.26533 c -0.43431,-0.10506 -0.88213,-0.35429 -1.09839,-0.61131 -0.53624,-0.63727 -0.41923,-1.56718 0.24009,-1.90813 0.37367,-0.19322 0.77674,-0.16658 1.57299,0.10401 0.66325,0.22539 0.7286,0.23252 1.21314,0.13244 0.28167,-0.0582 0.95374,-0.3268 1.49348,-0.59694 1.3709,-0.68614 1.78556,-0.7467 1.96058,-0.28636 0.18201,0.47872 -0.42818,1.3221 -1.48524,2.05285 -1.40647,0.9723 -2.81558,1.37494 -3.89665,1.11344 z m 9.08157,-2.42443 c -0.73034,-0.39629 -0.58343,-1.4611 0.23903,-1.73253 0.36698,-0.12111 0.62204,-0.0627 0.957,0.21914 0.87772,0.73855 -0.17323,2.06835 -1.19603,1.51339 z m -16.97996,-6.14369 c -0.35631,-0.10276 -0.60987,-0.50928 -0.61029,-0.97843 -5.1e-4,-0.56607 -0.008,-0.55123 1.51259,-2.85086 0.32202,-0.48688 0.73122,-0.73182 1.22259,-0.73182 0.33807,0 0.45262,0.0424 0.65146,0.24126 0.51906,0.51906 0.39218,1.29459 -0.41087,2.51139 -0.66638,1.0097 -1.15966,1.55594 -1.57581,1.74497 -0.38313,0.17403 -0.40129,0.1755 -0.78967,0.0635 z m -1.85777,-2.4853 c -0.63489,-0.27601 -0.79783,-1.15944 -0.32756,-1.776 0.6184,-0.81076 1.67899,-0.78814 2.10376,0.0449 0.54949,1.0776 -0.6316,2.22871 -1.7762,1.73112 z m 9.18787,-4.79691 c -0.25872,-0.0956 -0.52793,-0.48838 -0.61408,-0.89588 -0.082,-0.38804 0.10246,-1.51344 0.33132,-2.02101 0.45288,-1.00446 1.46585,-1.12699 2.11582,-0.25594 0.22608,0.30298 0.22259,1.18502 -0.007,1.76014 -0.19629,0.49179 -0.63188,1.11839 -0.89217,1.28339 -0.27629,0.17515 -0.66447,0.22889 -0.93393,0.1293 z m -8.18661,-11.12808 c -0.87559,-0.73676 -0.24603,-2.57615 0.88174,-2.57615 0.58354,0 1.0575,0.5522 1.0575,1.23209 0,1.17814 -1.17149,1.99008 -1.93924,1.34406 z m -12.01513,-0.55032 c -0.4821,-0.10198 -0.94697,-0.6836 -0.94697,-1.18482 0,-0.33979 0.27138,-0.75939 0.62485,-0.96614 0.44664,-0.26124 1.77672,-0.73133 2.09482,-0.74038 0.81025,-0.023 0.7772,1.20579 -0.0573,2.12945 -0.58648,0.64917 -1.1226,0.88728 -1.71543,0.76189 z m 13.89498,-3.96974 c -0.93931,-0.57272 -0.58007,-2.1789 0.59732,-2.67074 0.39986,-0.16703 0.72857,-0.10709 1.02202,0.18635 0.6532,0.65321 0.32903,2.03787 -0.58013,2.47798 -0.44491,0.21538 -0.69397,0.21692 -1.03921,0.006 z m 2.43014,-5.26859 c -0.44183,-0.22716 -0.59501,-0.53038 -0.43991,-0.87079 0.0555,-0.12172 0.413,-0.41902 0.81855,-0.68064 0.73289,-0.4728 0.91015,-0.678 1.52137,-1.76121 0.37304,-0.66111 0.90538,-0.88837 1.39853,-0.59706 0.52009,0.30723 0.66476,1.06105 0.33733,1.75764 -0.27645,0.58811 -1.2604,1.75225 -1.72085,2.03598 -0.57203,0.35248 -1.36206,0.40036 -1.91502,0.11608 z m -6.96273,-6.67247 c -0.1274,-0.0384 -0.35746,-0.14751 -0.51123,-0.24255 -0.90034,-0.55643 -0.89189,-2.17082 0.0146,-2.78137 0.67341,-0.45359 1.63611,-0.017 2.09287,0.94922 0.23989,0.50744 0.25028,0.81762 0.0426,1.27 -0.19059,0.41505 -0.40809,0.61587 -0.83,0.76634 -0.36731,0.13099 -0.48289,0.13648 -0.80875,0.0384 z m 5.04109,-10.83396 c -0.40935,-0.2496 -0.51586,-0.69668 -0.32976,-1.38418 0.29732,-1.0984 0.83311,-1.73832 1.51821,-1.8133 0.40192,-0.044 0.86419,0.20812 1.04812,0.57161 0.35136,0.69438 -0.24513,2.07195 -1.11887,2.584 -0.42688,0.25016 -0.75587,0.26249 -1.1177,0.0419 z m -12.00611,-5.66818 c -0.56698,-0.24903 -0.78706,-0.98691 -0.47613,-1.59639 0.22968,-0.4502 0.472,-0.61317 0.91179,-0.61317 0.28363,0 0.40798,0.0523 0.61409,0.25845 0.51468,0.51467 0.52143,1.23987 0.0161,1.72404 -0.26045,0.24953 -0.76833,0.35773 -1.06582,0.22707 z m 12.52392,-2.70786 c -0.14341,-0.0875 -0.30839,-0.27401 -0.36661,-0.41457 -0.11487,-0.27733 -0.12376,-0.24908 0.61834,-1.9658 0.45806,-1.05962 0.761,-1.35466 1.39099,-1.35466 0.30861,0 0.41879,0.0482 0.65849,0.28786 0.43598,0.43599 0.40834,0.87795 -0.12276,1.96331 -0.22585,0.46154 -0.51934,0.96817 -0.65222,1.12584 -0.42645,0.50606 -1.04537,0.65124 -1.52623,0.35802 z m 5.95591,-1.78095 c -0.26196,-0.23425 -0.27633,-0.27766 -0.27323,-0.8255 0.003,-0.4952 0.0566,-0.69858 0.37446,-1.41608 0.68006,-1.535 1.07269,-1.95617 1.8236,-1.95617 0.5275,0 0.84611,0.18844 1.08382,0.64102 0.33754,0.64263 -0.0717,1.67991 -1.24335,3.1515 -0.55521,0.69733 -1.25818,0.8587 -1.7653,0.40523 z m -11.80013,-2.53901 c -0.45227,-0.20538 -0.75875,-0.78123 -0.67026,-1.25936 0.14572,-0.78732 0.56194,-1.20252 1.38087,-1.37746 0.94035,-0.20088 1.71135,0.22484 1.71135,0.94496 0,0.70117 -0.42184,1.31074 -1.143,1.65167 -0.50886,0.24056 -0.81646,0.25023 -1.27896,0.0402 z m -3.90522,-11.54034 c -0.10388,-0.0501 -0.27079,-0.26039 -0.37093,-0.46725 -0.23625,-0.48803 -0.1818,-1.09917 0.16373,-1.83753 0.62837,-1.34282 1.67479,-1.87647 2.35185,-1.19942 0.44178,0.44178 0.37077,0.95921 -0.24932,1.81678 -0.15631,0.21616 -0.41248,0.63675 -0.56927,0.93464 -0.39398,0.74853 -0.82632,0.99396 -1.32606,0.75278 z m 7.63952,-0.69348 c -0.36833,-0.16258 -0.55833,-0.41341 -0.61108,-0.8067 -0.10258,-0.76474 0.49133,-1.598 1.19555,-1.67737 0.36241,-0.0409 0.40863,-0.0223 0.71906,0.28809 0.5496,0.54961 0.56212,1.40487 0.028,1.91437 -0.41115,0.39222 -0.864,0.48799 -1.33155,0.28161 z m -2.07553,-6.59696 c -0.31813,-0.15857 -0.46256,-0.51764 -0.33351,-0.82918 0.12594,-0.30406 0.31261,-0.41378 0.70399,-0.41378 0.21867,0 0.3415,0.0581 0.47124,0.22309 0.22741,0.28911 0.22241,0.56289 -0.015,0.82212 -0.23748,0.25928 -0.55221,0.33456 -0.8267,0.19775 z m 8.22001,-2.99005 c -0.25175,-0.32004 -0.22566,-0.67109 0.072,-0.96875 0.53357,-0.53358 1.39089,-0.11434 1.23331,0.60311 -0.12541,0.571 -0.95991,0.80477 -1.30532,0.36564 z m -19.96954,-1.39646 c -0.56454,-0.16282 -0.78892,-0.97168 -0.42011,-1.5144 0.50815,-0.74774 1.76357,-0.82041 2.08245,-0.12054 0.20765,0.45573 0.0585,0.94208 -0.40987,1.33615 -0.21607,0.18182 -0.77372,0.41298 -0.93175,0.38623 -0.0233,-0.004 -0.16761,-0.0433 -0.32072,-0.0874 z m 14.88343,-1.10023 c -0.11639,-0.0464 -0.29736,-0.16494 -0.40216,-0.2634 -0.36268,-0.34071 -0.17475,-1.03316 0.34769,-1.28107 0.47005,-0.22305 0.79158,-0.1802 1.12123,0.14945 0.47741,0.47741 0.3522,1.11177 -0.27081,1.37208 -0.32564,0.13606 -0.49968,0.14107 -0.79595,0.0229 z m 13.99323,-5.46204 c -0.36282,-0.17888 -1.472,-1.34801 -1.88476,-1.98663 -0.46551,-0.72023 -0.62941,-1.25919 -0.62826,-2.06588 0.002,-1.17877 0.4797,-1.905 1.25389,-1.905 0.68084,0 0.97853,0.44044 1.07656,1.5928 0.0764,0.89796 0.2348,1.30561 0.90544,2.33003 0.23878,0.36474 0.45857,0.79336 0.48843,0.9525 0.17217,0.91779 -0.43838,1.46326 -1.2113,1.08218 z m 170.506088,-8.68108 c -0.61461,-0.23606 -1.23337,-0.84103 -1.36481,-1.33441 -0.13291,-0.49892 -0.0601,-0.91852 0.38153,-2.19917 0.66526,-1.92905 1.52505,-6.7069 1.90129,-10.56541 0.0917,-0.94026 0.26331,-2.23566 0.3814,-2.87867 0.11808,-0.64301 0.28738,-1.7406 0.37621,-2.4391 0.0888,-0.6985 0.27493,-1.70815 0.41353,-2.24367 0.13859,-0.53552 0.33918,-1.45433 0.44572,-2.0418 0.16749,-0.92344 0.17866,-1.10453 0.0825,-1.33674 -0.0612,-0.14773 -0.18635,-0.30878 -0.27812,-0.35789 -0.20178,-0.108 -1.20446,-0.10441 -2.42381,0.009 -0.49487,0.0459 -2.34758,0.14092 -4.11711,0.21117 -6.79927,0.26994 -6.96127,0.31632 -7.23257,2.07074 -0.15522,1.00385 -0.51168,1.79752 -1.47092,3.2751 -0.21481,0.33088 -0.74859,1.30243 -1.1862,2.159 -0.81973,1.60452 -2.44962,4.392 -3.37394,5.77019 -1.5187,2.26441 -3.49715,3.43302 -6.4897,3.83326 -1.34657,0.1801 -1.99622,0.33553 -3.03809,0.72688 -0.48712,0.18297 -1.10413,0.35551 -1.37114,0.38341 -0.60863,0.0636 -1.54413,-0.0899 -2.42277,-0.39772 -0.37254,-0.13049 -1.03568,-0.33753 -1.47364,-0.46008 -1.281,-0.35847 -1.69745,-0.64533 -2.02981,-1.3982 -0.2471,-0.55972 -0.49626,-1.91115 -0.60098,-3.25967 -0.12737,-1.64021 -0.31128,-3.54225 -0.46319,-4.7904 -0.0704,-0.57838 -0.20606,-2.44225 -0.30149,-4.14193 -0.0954,-1.69968 -0.22793,-3.50943 -0.29444,-4.02167 -0.0665,-0.51223 -0.16034,-1.67428 -0.2085,-2.58233 -0.11418,-2.15293 -0.15205,-2.55841 -0.34945,-3.74154 -0.0908,-0.54443 -0.22098,-1.66838 -0.28921,-2.49767 -0.1467,-1.78314 -0.24803,-2.61195 -0.47372,-3.87491 -0.384612,-2.15228 -0.517222,-3.38 -0.512502,-4.74488 0.005,-1.57322 0.0888,-1.97771 0.622032,-3.01709 l 0.36333,-0.70824 v -0.97367 c -8.4e-4,-2.8055 -0.35662,-7.42787 -0.61203,-7.94823 -0.15981,-0.32557 -0.720932,-0.78794 -1.415532,-1.16641 -0.60955,-0.33214 -1.40479,-0.34852 -3.79133,-0.0781 -1.25521,0.14222 -2.38906,0.21859 -3.25967,0.21954 -1.59197,0.002 -2.24638,0.12083 -3.213906,0.58478 -0.83928,0.40245 -1.40534,0.90187 -1.60004,1.41167 -0.16241,0.42528 -0.14392,1.28807 0.0873,4.07474 0.19393,2.33685 0.3964,3.42375 1.03744,5.56902 0.61423,2.05553 0.60724,1.98753 0.743896,7.239 0.0975,3.74753 0.17094,5.26047 0.33892,6.985 0.47842,4.91134 0.49759,5.23686 0.50358,8.55133 0.004,2.48513 -0.0269,3.516 -0.13779,4.52967 -0.079,0.72178 -0.16713,1.59808 -0.19586,1.94733 -0.0287,0.34925 -0.12318,1.26365 -0.20987,2.032 -0.0867,0.76835 -0.20127,1.9304 -0.25463,2.58234 -0.10854,1.3261 -0.247646,1.93532 -0.521356,2.28329 -0.56973,0.7243 -2.13107,0.73522 -2.86628,0.0201 -0.34851,-0.339 -0.58777,-0.85201 -0.5902,-1.26544 -0.001,-0.17422 0.093,-0.76477 0.20896,-1.31234 0.28701,-1.35544 0.61598,-3.86387 0.77457,-5.90624 0.22438,-2.88979 0.0774,-9.69829 -0.26229,-12.14967 -0.0226,-0.16298 -0.0634,-0.63923 -0.0907,-1.05833 -0.0273,-0.4191 -0.10453,-1.44716 -0.17168,-2.28458 -0.0671,-0.83742 -0.12286,-2.59002 -0.1238,-3.89467 -9.3e-4,-1.30465 -0.0381,-2.61973 -0.0827,-2.92242 -0.0445,-0.30268 -0.14032,-1.14088 -0.21287,-1.86266 -0.17251,-1.71609 -0.45569,-2.95474 -1.05491,-4.61434 -0.26902,-0.74506 -0.53009,-1.54745 -0.58015,-1.78308 -0.052,-0.24483 -0.0961,-1.55096 -0.10277,-3.048 -0.0195,-4.35836 0.17328,-4.91233 2.10935,-6.06085 0.92199,-0.54693 2.95222,-1.5634 3.641806,-1.82332 1.08845,-0.41026 1.46638,-0.46013 4.07322,-0.53745 1.93741,-0.0575 2.70658,-0.11374 3.429,-0.25084 0.51224,-0.0972 1.40618,-0.23433 1.98654,-0.30469 1.698372,-0.20591 1.832832,-0.37096 1.959782,-2.40544 0.12938,-2.07352 0.32352,-2.71403 1.00956,-3.33084 0.87416,-0.78595 1.96244,-0.73347 2.38882,0.11519 0.17297,0.34428 0.19432,1.23151 0.0668,2.77774 -0.15668,1.89996 -0.17053,2.19145 -0.22395,4.71357 -0.0441,2.08205 -0.0275,2.79951 0.0918,3.97934 0.0803,0.79382 0.17087,2.65685 0.20187,4.15405 0.0722,3.48586 -0.0508,3.2605 2.00309,3.67121 1.35895,0.27175 4.42801,1.09811 5.88263,1.58393 0.92154,0.30778 2.17362,0.9295 3.55764,1.76654 0.94836,0.57355 1.3369,0.8477 2.5807,1.82089 0.51223,0.4008 1.33568,1.00298 1.82988,1.33819 1.52399,1.03369 2.36499,1.83474 3.84278,3.6602 0.32597,0.40265 0.89816,1.0789 1.27154,1.50278 1.27119,1.4431 1.99093,2.95271 1.99738,4.18939 0.002,0.34217 -0.0389,0.92972 -0.0903,1.30566 -0.10972,0.80145 -0.0209,1.34743 0.25555,1.57133 0.21178,0.1715 0.81413,0.19743 1.26543,0.0545 0.18121,-0.0574 1.72318,-0.12073 3.98093,-0.16351 5.9489,-0.11271 8.10617,-0.42217 8.56695,-1.22891 0.16801,-0.29416 0.27064,-0.98651 0.40719,-2.74722 0.13448,-1.73412 1.18686,-7.8731 1.6048,-9.3615 0.1803,-0.64209 0.28112,-1.25016 0.34177,-2.06114 0.23072,-3.08551 0.50588,-7.20042 0.55249,-8.26236 0.0664,-1.513 0.42115,-4.74838 0.63875,-5.8256 0.0922,-0.45664 0.3144,-1.19959 0.49368,-1.651 0.52894,-1.33178 0.95442,-2.73741 0.96602,-3.19141 0.006,-0.23284 -0.0215,-0.71247 -0.0609,-1.06587 -0.0601,-0.53837 -0.0478,-0.69305 0.0761,-0.95416 0.28088,-0.59191 1.00722,-0.87341 1.68037,-0.65125 0.66784,0.2204 1.57138,1.31581 2.13354,2.58661 0.1236,0.2794 0.52288,1.27 0.8873,2.20133 0.36441,0.93134 0.85969,2.16959 1.10063,2.75167 0.24094,0.58208 0.81229,2.18228 1.26968,3.55601 0.76031,2.28355 0.85063,2.62469 1.05352,3.97933 0.3615,2.41357 0.45101,3.08975 0.63886,4.826 0.0982,0.90805 0.30867,2.413 0.46762,3.34434 0.38466,2.25389 0.78033,5.62747 0.84407,7.19666 0.0657,1.61678 0.14931,2.00703 0.49206,2.29543 0.24541,0.2065 0.30599,0.21886 0.85952,0.17534 0.32752,-0.0257 1.0908,-0.14229 1.69617,-0.25899 2.2172,-0.42742 3.50764,-0.58335 4.91067,-0.59341 1.34462,-0.01 1.35843,-0.008 1.86266,0.2443 0.86544,0.43272 1.02433,1.02461 0.43361,1.61532 -0.36621,0.36622 -0.92869,0.51761 -2.33861,0.62943 -2.0638,0.16368 -3.66424,0.34426 -4.86833,0.54928 -1.70728,0.2907 -2.0349,0.37154 -2.3464,0.57894 -0.5228,0.34807 -0.63139,0.7667 -0.86969,3.35273 -0.17219,1.86864 -0.16165,3.1376 0.0488,5.87384 0.2296,2.98547 0.16899,4.93549 -0.26422,8.50045 -0.19633,1.61562 -0.20616,2.41872 -0.0381,3.11468 0.16539,0.68493 0.15642,0.9406 -0.0478,1.36239 -0.23711,0.48981 -0.60162,0.656 -1.34027,0.61106 -1.45015,-0.0882 -2.47092,-1.04821 -2.83644,-2.6675 -0.18899,-0.83727 -0.173,-1.52639 0.0733,-3.15829 0.31505,-2.08756 0.43961,-4.7445 0.30482,-6.50237 -0.1874,-2.44418 -0.2105,-4.98108 -0.0582,-6.39907 0.18997,-1.76934 0.18079,-2.42717 -0.0377,-2.70499 -0.0952,-0.12097 -0.29518,-0.24277 -0.4445,-0.27067 -0.42986,-0.0803 -5.59344,0.98037 -6.12917,1.25904 -0.32214,0.16757 -0.58563,0.46206 -0.73651,0.82317 -0.42087,1.00727 -1.86265,9.60722 -2.08561,12.44023 -0.1344,1.70773 -0.56968,5.1361 -0.81117,6.38897 -0.11705,0.60722 -0.39959,1.82793 -0.62787,2.71269 -0.22828,0.88477 -0.49577,1.98967 -0.59443,2.45534 -0.28477,1.34413 -0.70872,1.82349 -1.60574,1.8156 -0.25742,-0.002 -0.66913,-0.0822 -0.92064,-0.17884 z m -28.65737,-10.30969 c 0.7735,-0.31196 0.95171,-0.35094 1.778,-0.38893 2.45384,-0.11279 2.65572,-0.165 3.93708,-1.01803 1.765,-1.17501 3.0774,-2.7511 3.82705,-4.59599 0.11985,-0.29494 0.53827,-1.01877 0.92983,-1.60852 1.66016,-2.50043 2.43912,-4.00051 2.56324,-4.93607 0.0443,-0.33426 0.0239,-0.42077 -0.13743,-0.58212 -0.28115,-0.28114 -0.67841,-0.20128 -2.88914,0.58079 -2.1585,0.76358 -4.09694,1.2828 -4.78924,1.2828 -0.85522,0 -1.37908,-0.43726 -1.37973,-1.15165 -8.5e-4,-0.73207 0.52106,-1.15352 1.87363,-1.51352 0.44201,-0.11765 1.20132,-0.3705 1.68736,-0.5619 1.31738,-0.51878 2.94889,-1.0629 4.17947,-1.39389 1.86414,-0.50139 1.91123,-0.56526 1.91123,-2.59188 0,-1.63124 -0.0906,-2.07317 -0.63508,-3.09678 -0.49936,-0.93885 -2.3486,-3.34122 -3.34394,-4.34418 -0.44256,-0.44593 -1.10945,-1.02384 -1.48198,-1.28424 -0.37254,-0.26039 -1.03929,-0.78473 -1.48167,-1.16518 -1.99948,-1.7196 -4.20288,-3.12424 -5.88433,-3.75121 -1.04896,-0.39113 -4.31316,-1.24775 -4.8038,-1.26066 -1.11496,-0.0293 -1.49567,0.55577 -1.33601,2.05324 0.21402,2.00721 0.44191,3.87298 0.58895,4.82185 0.0902,0.58208 0.24524,1.83938 0.34451,2.794 0.0993,0.95461 0.2551,2.42146 0.34629,3.25966 0.0912,0.8382 0.20337,2.22885 0.24933,3.09034 0.046,0.86148 0.14015,2.51883 0.20935,3.683 0.0692,1.16416 0.16481,2.97391 0.21248,4.02166 0.0477,1.04775 0.12047,2.22885 0.16175,2.62467 0.0413,0.39582 0.11719,1.53882 0.16868,2.54 0.15082,2.93259 0.23072,3.69578 0.43002,4.10747 0.4267,0.88145 1.24948,0.99613 2.7641,0.38527 z m 38.29322,-19.18131 c 1.69352,-0.34185 3.54896,-0.83749 4.00472,-1.06976 0.17394,-0.0887 0.3811,-0.26012 0.46033,-0.38105 0.17782,-0.2714 0.27282,-1.48377 0.28446,-3.63029 0.007,-1.28892 -0.0319,-1.79825 -0.25207,-3.302 -0.14319,-0.9779 -0.29879,-1.98755 -0.3458,-2.24366 -0.047,-0.25612 -0.12369,-1.22735 -0.1704,-2.15829 -0.1093,-2.17834 -0.20371,-3.02428 -0.5056,-4.53038 -0.13534,-0.67522 -0.28614,-1.53247 -0.33511,-1.905 -0.16871,-1.28352 -0.60409,-3.30393 -0.88488,-4.10633 -1.24292,-3.55192 -1.54558,-4.23334 -1.88036,-4.23334 -0.35616,0 -0.59731,1.10466 -0.66538,3.048 -0.0253,0.72179 -0.0854,2.47439 -0.13362,3.89467 -0.0482,1.42028 -0.12154,3.02048 -0.16297,3.556 -0.0414,0.53552 -0.0987,1.56422 -0.12736,2.286 -0.0658,1.65969 -0.39321,4.54296 -0.76434,6.731 -0.15797,0.93133 -0.40031,2.36008 -0.53852,3.175 -0.29991,1.76828 -0.53527,4.06519 -0.46228,4.51144 0.0634,0.38786 0.36652,0.65323 0.74605,0.65323 0.14882,0 0.92873,-0.13286 1.73313,-0.29524 z m -197.426918,28.09046 c -0.74212,-0.36559 -0.80293,-1.4253 -0.1271,-2.21485 0.49752,-0.58123 0.95196,-0.64686 1.46866,-0.21208 0.58639,0.49341 0.76921,1.35392 0.4043,1.90302 -0.22088,0.33237 -0.82903,0.66956 -1.20259,0.66676 -0.14147,-0.001 -0.38595,-0.0653 -0.54327,-0.14285 z m 4.85385,-4.20765 c -0.78683,-0.34272 -1.26671,-1.97471 -0.80387,-2.7338 0.18181,-0.29818 0.22571,-0.31392 1.77223,-0.63533 1.15257,-0.23954 1.45313,-0.21978 1.79061,0.11769 0.31339,0.31339 0.34127,0.80823 0.0706,1.2523 -0.3299,0.54117 -1.5196,1.76765 -1.88731,1.94566 -0.41199,0.19944 -0.58463,0.20924 -0.94223,0.0535 z m -4.33037,-11.47652 c -1.00025,-0.60989 -0.69374,-2.28972 0.41779,-2.28972 1.03043,0 1.74233,1.1852 1.20473,2.00569 -0.28607,0.43659 -1.13003,0.58433 -1.62252,0.28403 z m -0.75262,-13.41673 c -0.79069,-0.34427 -0.91716,-1.36377 -0.23383,-1.88497 0.3906,-0.29792 1.05733,-0.3633 1.51076,-0.14813 0.43564,0.20672 0.68087,0.73827 0.55547,1.20399 -0.20184,0.74957 -1.09102,1.1519 -1.8324,0.82911 z m 4.32634,-14.11787 c -0.77987,-0.61345 -0.3863,-1.84845 0.58905,-1.84845 0.92677,0 1.30676,1.14181 0.58956,1.77153 -0.36811,0.3232 -0.82741,0.35317 -1.17861,0.0769 z m -3.98049,-5.88983 c -0.82708,-0.20708 -1.07318,-1.27446 -0.4298,-1.86407 0.24086,-0.22074 0.3718,-0.27516 0.66139,-0.2749 1.26395,10e-4 1.58953,1.5897 0.4273,2.08492 -0.28061,0.11957 -0.36845,0.12677 -0.65889,0.054 z"
       id="path1910" />
    <use
       id="use3353"
       inkscape:spray-origin="#path1910"
       xlink:href="#path1910"
       x="0"
       y="0"
       width="100%"
       height="100%"
       transform="translate(-57.934156,127.52331)" />
  </g>
</svg>
